<svg width="93" height="92" viewBox="0 0 93 92" fill="none" xmlns="http://www.w3.org/2000/svg">
<path d="M35.5956 58.1309C35.8872 59.8392 35.7706 63.5309 32.9706 64.6309C32.7623 64.7127 32.5538 64.784 32.3456 64.8455C32.2204 64.8826 32.0953 64.9161 31.9706 64.9464C31.4181 65.0803 30.8716 65.1496 30.3456 65.171C29.7736 65.1944 29.2258 65.1612 28.7206 65.0933C28.1597 65.0178 27.6512 64.8995 27.2206 64.7681C26.8088 64.6424 26.4681 64.5047 26.2206 64.3809C26.0092 64.4126 25.757 64.4407 25.4706 64.4617C25.0403 64.4932 24.5328 64.5088 23.9706 64.4966C23.8083 64.4931 23.6414 64.4873 23.4706 64.4789C22.96 64.4537 22.4136 64.4055 21.8456 64.3265C21.3186 64.2533 20.7731 64.1536 20.2206 64.0216C19.682 63.8929 19.1368 63.7334 18.5956 63.5375C18.0892 63.3543 17.5863 63.1392 17.0956 62.8878C16.5956 64.4966 18.2206 66.0056 18.2206 66.8806C18.2206 67.1894 18.2984 67.4982 18.4706 67.8564C18.7759 68.4919 19.3781 69.283 20.3691 70.5056L20.4706 70.6306C20.9646 71.2387 21.6718 71.9045 22.4706 72.5508C23.1002 73.0603 23.7867 73.5576 24.4706 74.005C25.0693 74.3967 25.6659 74.7501 26.2206 75.0398C26.872 75.38 27.4655 75.6324 27.9361 75.7556C28.0333 75.781 28.128 75.8065 28.2206 75.8319C28.9165 76.0232 29.4852 76.2145 29.9706 76.4059C30.6291 76.6655 31.1342 76.9251 31.5956 77.1847C31.6376 77.2083 31.6792 77.232 31.7206 77.2556C32.1657 77.51 32.9021 77.8291 33.6005 78.1306L33.6416 78.1484C34.3006 78.4328 34.9198 78.7001 35.2206 78.8806C35.2549 78.9012 35.2968 78.925 35.3456 78.9517C35.6724 79.1308 36.3034 79.4387 36.9706 79.7557C37.6535 80.0803 38.3744 80.4147 38.8456 80.6306C39.2206 82.5056 39.5956 84.0056 39.5956 85.2556C39.5956 86.5056 39.3456 88.3806 39.8456 89.0056C40.1254 89.3554 40.9536 89.9795 42.2206 90.4611C43.217 90.8399 44.8597 91.1306 46.3456 91.1306C47.8314 91.1306 49.4741 90.8399 50.4706 90.4611C51.7375 89.9795 52.5657 89.3554 52.8456 89.0056C53.3456 88.3806 53.0956 86.5056 53.0956 85.2556C53.0956 84.0056 53.4706 82.5056 53.8456 80.6306C54.3167 80.4147 55.0376 80.0803 55.7206 79.7557C56.3877 79.4387 57.0188 79.1308 57.3456 78.9517C57.3943 78.925 57.4362 78.9012 57.4706 78.8806C57.7713 78.7001 58.3905 78.4328 59.0495 78.1484L59.0906 78.1306C59.789 77.8291 60.5254 77.51 60.9706 77.2556C61.0119 77.232 61.0536 77.2083 61.0956 77.1847C61.5569 76.9251 62.062 76.6655 62.7206 76.4059C63.2059 76.2145 63.7746 76.0232 64.4706 75.8319C64.5631 75.8065 64.6579 75.781 64.755 75.7556C65.2256 75.6324 65.8191 75.38 66.4706 75.0398C67.0252 74.7501 67.6218 74.3967 68.2206 74.005C68.9044 73.5576 69.5909 73.0603 70.2206 72.5508C71.0193 71.9045 71.7265 71.2387 72.2206 70.6306L72.322 70.5056C73.313 69.283 73.9152 68.4919 74.2206 67.8564C74.3927 67.4982 74.4706 67.1894 74.4706 66.8806C74.4706 66.0056 76.0956 64.4966 75.5956 62.8878C75.1048 63.1392 74.6019 63.3543 74.0956 63.5375C73.5543 63.7334 73.0091 63.8929 72.4706 64.0216C71.918 64.1536 71.3725 64.2533 70.8456 64.3265C70.2776 64.4055 69.7311 64.4537 69.2206 64.4789C69.0497 64.4873 68.8828 64.4931 68.7206 64.4966C68.1583 64.5088 67.6508 64.4932 67.2206 64.4617C66.9341 64.4407 66.6819 64.4126 66.4706 64.3809C66.223 64.5047 65.8823 64.6424 65.4706 64.7681C65.0399 64.8995 64.5314 65.0178 63.9706 65.0933C63.4653 65.1612 62.9175 65.1944 62.3456 65.171C61.8195 65.1496 61.273 65.0803 60.7206 64.9464C60.5958 64.9161 60.4707 64.8826 60.3456 64.8455C60.1374 64.784 59.9288 64.7127 59.7206 64.6309C56.9206 63.5309 56.8039 59.8392 57.0956 58.1309C55.7246 58.6793 54.3913 59.1149 53.0956 59.211C52.7174 59.239 52.3424 59.2382 51.9706 59.2027C51.2933 59.1382 50.6266 58.9589 49.9706 58.6309C47.7206 57.5059 46.7206 55.3809 46.7206 50.1309C46.7206 48.1114 48.4221 47.7196 49.4918 47.6462C47.4309 47.7301 46.7206 48.0703 46.7206 46.3809V36.5059C46.7206 35.8753 46.7206 35.2889 46.7949 34.7559C46.6323 32.375 46.457 30.2767 46.7949 28.6342C46.5345 24.818 46.2414 21.004 47.0416 19.1309C46.7039 18.3424 46.7066 17.3774 47.0416 16.4785C46.7206 16.8806 46.7472 17.2497 46.3456 17.2497C45.9706 17.2497 45.9706 16.8806 45.6495 16.4785C45.9845 17.3774 45.9872 18.3424 45.6495 19.1309C46.4497 21.004 46.1566 24.818 45.8962 28.6342C46.2341 30.2767 46.0588 32.375 45.8962 34.7559C45.9706 35.2889 45.9706 35.8753 45.9706 36.5059V46.3809C45.9706 48.0703 45.2602 47.7301 43.1993 47.6462C44.269 47.7196 45.9706 48.1114 45.9706 50.1309C45.9706 55.3809 44.9706 57.5059 42.7206 58.6309C42.0645 58.9589 41.3978 59.1382 40.7206 59.2027C40.3488 59.2382 39.9738 59.239 39.5956 59.211C38.2998 59.1149 36.9665 58.6793 35.5956 58.1309Z" fill="#CE4849"/>
<path d="M24.0226 5.98955C25.3223 4.88278 27.6949 3.53523 30.9719 3.38136C32.263 2.64711 33.8181 2.45413 36.5226 2.70026C41.5226 -0.493839 43.3976 1.63096 43.8976 2.50616C44.3976 3.38136 45.6476 5.74895 45.2726 6.62741C46.0664 7.55272 46.1172 9.14256 45.5765 10.938C46.4101 12.4794 46.1284 14.6003 45.2242 15.7562C45.3667 15.9886 45.4842 16.2312 45.5765 16.4788C45.9115 17.3776 45.9142 18.3427 45.5765 19.1312C46.3767 21.0042 46.0836 24.8183 45.8233 28.6345C46.1611 30.2769 45.9858 32.3752 45.8233 34.7562C45.8976 35.2891 45.8976 35.8755 45.8976 36.5062V46.3812C45.8976 48.0706 45.1872 47.7304 43.1264 47.6465C44.196 47.7198 45.8976 48.1117 45.8976 50.1312C45.8976 55.3812 44.8976 57.5062 42.6476 58.6312C41.9915 58.9592 41.3249 59.1384 40.6476 59.203C40.2758 59.2384 39.9008 59.2393 39.5226 59.2112C38.2268 59.1151 36.8935 58.6795 35.5226 58.1312C35.8143 59.8395 35.6976 63.5312 32.8976 64.6312C32.6894 64.713 32.4808 64.7842 32.2726 64.8458C32.1474 64.8828 32.0223 64.9164 31.8976 64.9466C31.3451 65.0806 30.7986 65.1498 30.2726 65.1713C29.7007 65.1946 29.1528 65.1615 28.6476 65.0935C28.0867 65.0181 27.5783 64.8998 27.1476 64.7683C26.7358 64.6427 26.3951 64.5049 26.1476 64.3812C25.9362 64.4129 25.684 64.4409 25.3976 64.4619C24.9673 64.4935 24.4599 64.509 23.8976 64.4969C23.7353 64.4934 23.5685 64.4875 23.3976 64.4791C22.887 64.454 22.3406 64.4057 21.7726 64.3268C21.2456 64.2535 20.7001 64.1539 20.1476 64.0218C19.609 63.8931 19.0638 63.7336 18.5226 63.5378C18.0162 63.3545 17.5133 63.1395 17.0226 62.888C16.9389 62.8451 16.8555 62.8012 16.7726 62.7562C15.4809 62.8395 12.4976 62.5062 10.8976 60.5062C9.60592 60.2562 6.61555 58.9562 4.98743 55.7562C4.45171 55.3773 3.85141 54.8795 3.27258 54.2562C1.64758 52.5062 2.14764 50.8812 2.02264 50.2562C1.89764 49.6312 0.397641 47.2562 1.27265 45.5062C1.02265 44.1312 1.06442 40.6062 3.23148 37.5062C2.93259 34.6288 3.25821 29.6547 6.38998 26.2562C6.59357 23.0012 7.71357 20.1887 10.852 18.0062C11.491 16.4938 12.0492 14.8546 13.2726 13.6312C14.7726 12.1312 16.1477 11.7562 16.7727 11.2562C17.3977 10.7562 20.7726 5.63116 24.0226 5.98955Z" fill="#D78B8F"/>
<path d="M68.5751 5.98955C67.2755 4.88278 64.9029 3.53523 61.6259 3.38136C60.3348 2.64711 58.7797 2.45413 56.0752 2.70026C51.0752 -0.493839 49.2002 1.63096 48.7002 2.50616C48.2002 3.38136 46.9502 5.74895 47.3252 6.62741C46.5314 7.55272 46.4806 9.14256 47.0213 10.938C46.1877 12.4794 46.4694 14.6003 47.3736 15.7562C47.2311 15.9886 47.1136 16.2312 47.0213 16.4788C46.6862 17.3776 46.6835 18.3427 47.0213 19.1312C46.2211 21.0042 46.5141 24.8183 46.7745 28.6345C46.4366 30.2769 46.6119 32.3752 46.7745 34.7562C46.7002 35.2891 46.7002 35.8755 46.7002 36.5062V46.3812C46.7002 48.0706 47.4106 47.7304 49.4714 47.6465C48.4018 47.7198 46.7002 48.1117 46.7002 50.1312C46.7002 55.3812 47.7002 57.5062 49.9502 58.6312C50.6062 58.9592 51.2729 59.1384 51.9502 59.203C52.322 59.2384 52.697 59.2393 53.0752 59.2112C54.3709 59.1151 55.7043 58.6795 57.0752 58.1312C56.7835 59.8395 56.9002 63.5312 59.7002 64.6312C59.9084 64.713 60.117 64.7842 60.3252 64.8458C60.4504 64.8828 60.5754 64.9164 60.7002 64.9466C61.2527 65.0806 61.7991 65.1498 62.3252 65.1713C62.8971 65.1946 63.445 65.1615 63.9502 65.0935C64.5111 65.0181 65.0195 64.8998 65.4502 64.7683C65.8619 64.6427 66.2026 64.5049 66.4502 64.3812C66.6615 64.4129 66.9137 64.4409 67.2002 64.4619C67.6304 64.4935 68.1379 64.509 68.7002 64.4969C68.8625 64.4934 69.0293 64.4875 69.2002 64.4791C69.7107 64.454 70.2572 64.4057 70.8252 64.3268C71.3522 64.2535 71.8977 64.1539 72.4502 64.0218C72.9887 63.8931 73.5339 63.7336 74.0752 63.5378C74.5816 63.3545 75.0845 63.1395 75.5752 62.888C75.6589 62.8451 75.7422 62.8012 75.8252 62.7562C77.1169 62.8395 80.1002 62.5062 81.7002 60.5062C82.9919 60.2562 85.9822 58.9562 87.6104 55.7562C88.1461 55.3773 88.7464 54.8795 89.3252 54.2562C90.9502 52.5062 90.4501 50.8812 90.5751 50.2562C90.7001 49.6312 92.2001 47.2562 91.3251 45.5062C91.5751 44.1312 91.5334 40.6062 89.3663 37.5062C89.6652 34.6288 89.3396 29.6547 86.2078 26.2562C86.0042 23.0012 84.8842 20.1887 81.7457 18.0062C81.1067 16.4938 80.5486 14.8546 79.3251 13.6312C77.8251 12.1312 76.4501 11.7562 75.8251 11.2562C75.2001 10.7562 71.8251 5.63116 68.5751 5.98955Z" fill="#D78B8F"/>
<path d="M30.9719 3.38136C30.5102 3.64392 30.0823 3.9757 29.6476 4.38136M30.9719 3.38136C27.6949 3.53523 25.3223 4.88278 24.0226 5.98955M30.9719 3.38136C32.263 2.64711 33.8181 2.45413 36.5226 2.70026M24.0226 5.98955C23.633 6.32134 23.3399 6.6315 23.1476 6.88136M24.0226 5.98955C20.7726 5.63116 17.3977 10.7562 16.7727 11.2562C16.1477 11.7562 14.7726 12.1312 13.2726 13.6312C12.0492 14.8546 11.491 16.4938 10.852 18.0062M9.27265 21.3812C9.35598 21.1728 9.69765 20.4062 10.3977 19.0062C10.559 18.6835 10.7076 18.3481 10.852 18.0062M10.852 18.0062C7.71357 20.1887 6.59357 23.0012 6.38998 26.2562M5.14759 32.6312C5.18926 31.9645 5.4976 30.2812 6.39765 28.8812C6.34607 27.9785 6.33706 27.1024 6.38998 26.2562M6.38998 26.2562C3.25821 29.6547 2.93259 34.6288 3.23148 37.5062M3.23148 37.5062C3.27559 37.9308 3.3333 38.3097 3.39759 38.6312M3.23148 37.5062C1.06442 40.6062 1.02265 44.1312 1.27265 45.5062M1.27265 45.5062C0.397641 47.2562 1.89764 49.6312 2.02264 50.2562C2.14764 50.8812 1.64758 52.5062 3.27258 54.2562C3.85141 54.8795 4.45171 55.3773 4.98743 55.7562M1.27265 45.5062C2.27258 44.2562 2.14757 43.3812 2.77258 42.5062C3.39759 41.6312 4.32727 40.8812 4.98743 41.0062M4.98743 55.7562C5.65489 56.2282 6.22209 56.5156 6.52258 56.6312M4.98743 55.7562C6.61555 58.9562 9.60592 60.2562 10.8976 60.5062C12.4976 62.5062 15.4809 62.8395 16.7726 62.7562M16.7726 62.7562C13.6476 61.3812 12.3976 60.0062 11.6476 54.5062M16.7726 62.7562C16.8555 62.8012 16.9389 62.8451 17.0226 62.888M35.5226 58.1312C35.8143 59.8395 35.6976 63.5312 32.8976 64.6312C32.6894 64.713 32.4808 64.7842 32.2726 64.8458M35.5226 58.1312C33.1476 57.2562 30.7726 55.5062 29.2726 54.5062C27.7726 53.5062 24.7726 53.1312 21.1476 51.1312C17.5226 49.1312 16.8976 47.6312 15.1476 45.0062C14.5572 44.1206 14.0379 43.3772 13.5226 42.7378M35.5226 58.1312C36.8935 58.6795 38.2268 59.1151 39.5226 59.2112M4.98743 41.0062C4.83248 41.5062 4.57258 42.7562 4.77258 43.7562M4.98743 41.0062C5.37083 39.842 6.63441 39.191 8.14758 39.3292M43.1264 47.6465C44.196 47.7198 45.8976 48.1117 45.8976 50.1312C45.8976 55.3812 44.8976 57.5062 42.6476 58.6312C41.9915 58.9592 41.3249 59.1384 40.6476 59.203M43.1264 47.6465C42.8057 47.6245 42.5418 47.6312 42.3976 47.6312M43.1264 47.6465C42.9 47.6373 42.6574 47.6312 42.3976 47.6312M43.1264 47.6465C45.1872 47.7304 45.8976 48.0706 45.8976 46.3812V36.5062C45.8976 35.8755 45.8976 35.2891 45.8233 34.7562M42.3976 47.6312C41.7726 47.6312 39.5226 47.6312 38.0226 48.5062M45.8233 34.7562C45.7208 34.0214 45.4772 33.3883 44.8976 32.8812M45.8233 34.7562C45.9858 32.3752 46.1611 30.2769 45.8233 28.6345M45.8233 28.6345C45.4871 27.0002 44.6429 25.8173 42.7726 25.2562M45.8233 28.6345C46.0836 24.8183 46.3767 21.0042 45.5765 19.1312M41.0664 20.5062C41.2628 20.3903 41.4658 20.2766 41.6476 20.1312C42.2726 19.6312 43.0226 17.1312 44.7726 18.1312C45.1176 18.3283 45.38 18.6712 45.5765 19.1312M41.0664 20.5062C40.5876 20.7885 40.1476 21.0834 40.1476 21.8812M41.0664 20.5062C40.0313 20.5062 40.0226 19.1728 40.1476 18.5062M45.5765 19.1312C45.9142 18.3427 45.9115 17.3776 45.5765 16.4788M34.6476 17.3937C34.925 16.8967 35.3315 16.3305 35.8976 15.6312C38.0226 13.0062 41.2726 13.1312 43.3976 14.1312C44.2075 14.5123 44.8177 15.0932 45.2242 15.7562M34.6476 17.3937C33.8835 18.7622 34.0974 19.6056 34.6476 21.2562M34.6476 17.3937C33.3476 19.1837 31.7726 19.9645 31.1476 20.1312M45.2242 15.7562C46.1284 14.6003 46.4101 12.4794 45.5765 10.938M45.2242 15.7562C45.3667 15.9886 45.4842 16.2312 45.5765 16.4788M45.5765 10.938C45.3284 10.4791 44.9814 10.0716 44.5226 9.75616M45.5765 10.938C46.1172 9.14256 46.0664 7.55272 45.2726 6.62741M38.1477 2.88136C37.5629 2.80639 37.023 2.74581 36.5226 2.70026M36.5226 2.70026C41.5226 -0.493839 43.3976 1.63096 43.8976 2.50616C44.3976 3.38136 45.6476 5.74895 45.2726 6.62741M45.2726 6.62741C44.4938 5.71963 42.9999 5.45143 40.6476 6.25616M23.8976 49.5059C30.5226 51.1312 32.5226 54.3809 34.2726 56.0059C36.0226 57.6309 37.0226 58.7916 39.5226 59.2112M39.5226 59.2112C39.9008 59.2393 40.2758 59.2384 40.6476 59.203M13.5226 42.7378C12.5104 41.4818 11.5135 40.6266 10.0226 39.8812C9.38455 39.5621 8.74651 39.3839 8.14758 39.3292M13.5226 42.7378C11.5226 40.0522 11.4392 37.1309 11.6476 36.0059M8.14758 39.3292C6.8409 38.5031 6.57764 35.0766 8.432 33.3809M8.432 33.3809C8.70635 33.13 9.02705 32.917 9.39758 32.7559M8.432 33.3809C8.00447 31.4809 8.81429 28.5892 9.27265 27.3809M6.38998 32.7559C6.38998 33.1055 6.35857 33.394 6.30672 33.6309M6.30672 33.6309C6.13613 34.4103 5.74433 34.6309 5.52258 34.6309M6.30672 33.6309C6.38007 35.0623 5.32769 36.5908 5.2469 38.1309M5.2469 38.1309C5.23598 38.3391 5.24281 38.5475 5.27258 38.7559M5.2469 38.1309C3.63457 38.9309 3.09222 40.0475 3.02258 40.5059M8.432 27.1309C8.432 25.2309 9.74243 23.8392 10.3977 23.3809C10.3977 22.2809 10.7006 21.7559 10.852 21.6309M10.852 20.1312C11.52 19.0142 12.5557 18.073 13.4907 17.3937M13.4907 17.3937C14.1464 16.9173 14.7525 16.5698 15.1476 16.3809M13.4907 17.3937C14.4162 14.9834 16.7309 13.1309 17.7726 12.5059M10.0226 36.0059C9.93925 34.5475 10.0976 31.0059 11.3976 28.5059C11.3976 27.2877 12.0076 24.4861 14.2765 21.8812M15.5226 20.6309C15.0601 21.0373 14.6463 21.4566 14.2765 21.8812M14.2765 21.8812C14.2734 20.4812 15.1892 19.2976 15.6476 18.8809M15.3976 17.2559C16.9804 15.4572 18.8306 14.1978 20.1476 13.4775M20.1476 13.4775C20.6612 13.1966 21.0937 12.9978 21.3976 12.8809M20.1476 13.4775C20.9476 11.7004 23.5642 9.92263 24.7726 9.25586M23.7726 7.38086C28.0226 4.88086 30.2962 5.02217 30.9719 5.50586C33.9124 4.00586 36.981 4.13119 38.1477 4.38136M38.1477 4.38136C39.9476 3.18136 41.4809 3.88136 42.0226 4.38136M38.1477 4.38136C36.8476 5.48096 36.3559 6.33689 36.2726 6.62741M18.0226 19.7559C19.3628 17.4229 21.395 15.7941 23.3976 14.7046M23.3976 14.7046C25.4293 13.5992 27.4305 13.0487 28.6476 12.8809M23.3976 14.7046C25.9976 11.1456 29.3976 9.58919 30.7726 9.25586M36.2726 11.5059C36.873 11.0115 37.5222 10.6792 38.1477 10.4618M38.1477 10.4618C39.2931 10.0634 40.3586 10.0501 40.8976 10.1309M38.1477 10.4618C36.8476 9.69704 35.7726 9.67273 35.3976 9.75616M22.3976 28.0059C23.3945 25.015 24.9421 23.654 26.5226 23.1648M26.5226 23.1648C28.7072 22.4885 30.9547 23.4779 31.8976 24.1309M26.5226 23.1648C27.0515 20.7394 27.3983 19.3036 28.0926 18.1312M28.0926 18.1312C28.8751 16.8099 30.099 15.823 32.5226 14.1312M28.0926 18.1312C29.2726 14.8809 24.6477 16.7556 24.0226 17.6309M20.2726 23.7559C19.1779 25.081 18.8052 26.6634 18.7576 28.0059M18.7576 28.0059C18.7227 28.9934 18.8636 29.8511 19.0226 30.3809M18.7576 28.0059C18.14 27.3246 17.6223 27.2106 17.1476 27.4647M20.6476 41.8509C18.6792 42.9659 16.3769 40.7449 15.1476 38.3809C14.3783 36.9015 14.1973 35.282 14.3261 33.7877M20.6476 41.8509C20.7091 41.8161 20.7702 41.778 20.831 41.7366M20.6476 41.8509C20.7106 41.8115 20.7717 41.7734 20.831 41.7366M20.831 41.7366C21.3966 41.3511 21.9303 40.6753 22.3976 39.6309M20.831 41.7366C22.4161 40.7531 22.6701 40.7376 23.2726 41.8509M14.3261 33.7877C13.6833 36.9622 13.7726 38.8047 13.8976 39.3292M14.3261 33.7877C14.3758 33.2118 14.4714 32.6544 14.5972 32.1309M14.5972 32.1309C14.8343 31.1434 15.1785 30.2761 15.5226 29.6309C16.0684 28.6074 16.577 27.7702 17.1476 27.4647M14.5972 32.1309C14.7812 30.4465 14.5711 29.3251 14.0934 28.8812M14.0934 28.8812C13.7913 28.6003 13.382 28.5907 12.8976 28.8812M14.0934 28.8812C13.6368 27.6809 13.7726 27.2142 13.8976 27.1309M17.1476 27.4647C15.5226 25.0059 17.8677 21.8806 18.7576 21.6309M41.0664 35.3809C40.4852 35.2559 39.1476 34.7562 38.1476 35.3809C37.1476 36.0056 36.2726 35.0059 34.6476 34.0059C34.1047 33.6718 33.7013 33.0726 33.5167 32.3809M35.6476 28.5059C33.6498 29.255 33.1487 31.0019 33.5167 32.3809M33.5167 32.3809C32.5214 32.4809 31.7726 33.1725 31.5226 33.5059M40.1476 41.8509C40.0352 41.5658 39.9085 41.3043 39.7726 41.0653M39.7726 41.0653C39.0621 39.8154 38.1023 39.1807 37.6476 39.0059M39.7726 41.0653C38.7726 39.2177 39.0226 38.5892 39.2726 38.5059M34.3976 43.2559C33.7726 42.2559 31.5226 39.8809 30.0226 40.2559C29.5442 40.3754 29.0913 40.4061 28.6476 40.3152M34.3976 43.2559C35.6476 42.2559 36.5226 42.7378 38.7726 44.2559M34.3976 43.2559C33.6929 43.7559 33.854 44.7975 34.0226 45.2559M27.2726 30.3809C24.5947 33.1703 24.3072 34.9637 25.3431 37.0059M25.3431 37.0059C25.4677 37.2515 25.6115 37.5008 25.7726 37.7559C26.7942 39.3735 27.6999 40.1213 28.6476 40.3152M25.3431 37.0059C23.9867 34.9059 22.5642 34.8809 22.0226 35.1309M28.6476 40.3152C27.8976 42.7378 28.1476 44.1315 29.2726 45.0062C29.4479 45.1425 29.6141 45.2666 29.7726 45.3848M36.2726 51.1312C34.4726 48.4309 32.6059 47.7559 31.8976 47.7559M31.8976 47.7559C30.6976 47.7559 29.4809 48.2561 29.0226 48.5062M31.8976 47.7559C31.2703 46.5013 30.6431 46.0337 29.7964 45.4026L29.7726 45.3848M29.7726 45.3848C27.2726 44.5059 25.2726 46.3815 24.2726 47.6312M5.64758 49.7559C4.64758 55.2559 8.64758 58.8809 11.8976 58.8809M3.27258 48.5059C3.27258 50.2059 3.77258 50.7142 4.02258 50.7559C3.7011 49.2556 3.83895 47.296 4.98743 47.0823M4.98743 47.0823C5.17862 47.0467 5.39783 47.0595 5.64758 47.1309C7.39758 47.6309 8.77258 49.3812 9.27258 50.2562C9.33202 50.3602 9.4162 50.4483 9.52258 50.5264M4.98743 47.0823C3.91555 46.8211 3.89758 45.2559 4.02258 44.5059M9.52258 50.5264C8.92258 50.3102 8.52258 50.5893 8.39758 50.7559M9.52258 50.5264C10.1362 50.9768 11.4886 51.0938 13.0964 52.0059M13.0964 52.0059C13.5548 52.2659 14.0339 52.5905 14.5226 53.0059C15.9387 54.2095 16.7532 55.8546 17.6476 57.3954M13.0964 52.0059C12.4373 51.0059 12.1892 49.8392 12.1476 49.3809M17.6476 57.3954C18.3322 58.5749 19.0637 59.6934 20.1476 60.5062M17.6476 57.3954C20.461 57.2203 23.069 57.9527 24.5226 58.5411M24.5226 58.5411C24.8256 58.6638 25.0785 58.7802 25.2726 58.8809M24.5226 58.5411C24.7965 58.4882 25.06 58.492 25.3109 58.5411M23.8976 64.4969C24.7976 63.9041 23.7726 62.9225 23.1476 62.5059M23.8976 64.4969C23.7353 64.4934 23.5685 64.4875 23.3976 64.4791M23.8976 64.4969C24.4599 64.509 24.9673 64.4935 25.3976 64.4619M27.8632 62.7562C27.947 62.5921 28.0039 62.4241 28.0226 62.2559C28.1315 61.2759 27.0072 58.873 25.3109 58.5411M27.8632 62.7562C27.4983 63.4698 26.6219 64.1101 26.1476 64.3812M27.8632 62.7562C29.1907 61.0559 30.9392 60.7975 31.6476 60.8809M26.1476 64.3812C25.9362 64.4129 25.684 64.4409 25.3976 64.4619M26.1476 64.3812C26.3951 64.5049 26.7358 64.6427 27.1476 64.7683M25.3109 58.5411C26.5803 57.8129 28.4809 58.0475 29.2726 58.2559M32.2726 64.8458C32.1474 64.8828 32.0223 64.9164 31.8976 64.9466M32.2726 64.8458C32.7143 65.2769 33.1734 65.6885 33.6476 66.0792M40.6476 59.203C41.2476 59.7453 42.3976 60.2142 42.8976 60.3809M17.0226 62.888C16.5226 64.4969 18.1476 66.0059 18.1476 66.8809C18.1476 67.1897 18.2254 67.4984 18.3976 67.8567M17.0226 62.888C17.5133 63.1395 18.0162 63.3545 18.5226 63.5378M37.7726 68.7575C36.8976 75.7559 38.5226 78.8809 38.7726 80.6309M37.7726 68.7575C39.0644 69.3985 40.408 69.8981 41.7726 70.2375M37.7726 68.7575C36.9133 68.3311 36.0769 67.8421 35.2726 67.2961M38.7726 80.6309C39.1476 82.5059 39.5226 84.0059 39.5226 85.2559C39.5226 86.5059 39.2726 88.3809 39.7726 89.0059C40.0525 89.3557 40.8807 89.9797 42.1476 90.4613M38.7726 80.6309C38.3014 80.4149 37.5806 80.0806 36.8976 79.756M41.7726 70.2375C40.1476 74.7559 42.0226 80.5059 42.1476 82.6309C42.2726 84.7559 42.5226 88.1668 42.1476 90.4613M41.7726 70.2375C42.4731 70.4117 43.1792 70.5437 43.8866 70.6309M42.1476 90.4613C43.144 90.8401 44.6618 91.1309 46.1476 91.1309M43.8866 70.6309C44.5569 70.7135 45.2284 70.7559 45.8976 70.7559H46.6476C47.3167 70.7559 47.9882 70.7135 48.6585 70.6309M43.8866 70.6309C45.5226 71.8809 46.2726 74.375 46.2726 75.5M45.5765 16.4788C45.8976 16.8809 45.8976 17.25 46.2726 17.25C46.6742 17.25 46.6476 16.8809 46.9687 16.4788M18.5226 63.5378C18.4226 65.2122 18.3976 67.1147 18.3976 67.8567M18.5226 63.5378C19.0638 63.7336 19.609 63.8931 20.1476 64.0218M18.3976 67.8567C18.703 68.4922 19.3052 69.2832 20.2961 70.5059M20.1476 64.0218C20.0226 67.8567 20.0697 69.7559 20.2961 70.5059M20.1476 64.0218C20.7001 64.1539 21.2456 64.2535 21.7726 64.3268M20.2961 70.5059C20.3295 70.547 20.3633 70.5887 20.3976 70.6309C20.8916 71.2389 21.5988 71.9047 22.3976 72.5511M21.7726 64.3268C21.7726 68.2559 21.7726 71.5963 22.3976 72.5511M21.7726 64.3268C22.3406 64.4057 22.887 64.454 23.3976 64.4791M22.3976 72.5511C23.0272 73.0605 23.7137 73.5579 24.3976 74.0053M23.3976 64.4791C23.6476 66.6309 23.6476 70.2559 23.7726 71.1309C23.8976 72.0059 23.8976 73.3797 24.3976 74.0053M24.3976 74.0053C24.9963 74.397 25.593 74.7504 26.1476 75.04M25.3976 64.4619C25.2726 67.8567 25.6476 71.8809 25.7726 72.6309C25.8976 73.3809 25.8976 74.6992 26.1476 75.04M26.1476 75.04C26.7991 75.3803 27.3925 75.6326 27.8632 75.7559C27.9603 75.7813 28.0551 75.8067 28.1476 75.8322M27.1476 64.7683C27.3976 66.8809 27.1476 69.6309 27.2726 70.8809C27.3976 72.1309 27.5226 75.2835 28.1476 75.8322M27.1476 64.7683C27.5783 64.8998 28.0867 65.0181 28.6476 65.0935M28.1476 75.8322C28.8436 76.0235 29.4123 76.2148 29.8976 76.4061M28.6476 65.0935C28.8976 69.1309 29.1476 75.5564 29.8976 76.4061M28.6476 65.0935C29.1528 65.1615 29.7007 65.1946 30.2726 65.1713M29.8976 76.4061C30.5561 76.6657 31.0612 76.9253 31.5226 77.185M30.2726 65.1713C30.5226 71.7559 30.5226 75.7391 31.5226 77.185M30.2726 65.1713C30.7986 65.1498 31.3451 65.0806 31.8976 64.9466M31.5226 77.185C31.5646 77.2086 31.6062 77.2322 31.6476 77.2559C32.0928 77.5102 32.8292 77.8294 33.5275 78.1309M31.8976 64.9466C32.5226 72.0059 32.4075 77.1309 33.5275 78.1309M33.5275 78.1309L33.5687 78.1486C34.2276 78.4331 34.8468 78.7004 35.1476 78.8809C35.1819 78.9014 35.2239 78.9253 35.2726 78.952M33.6476 66.0792C34.1476 74.8809 34.1476 77.8981 35.2726 78.952M33.6476 66.0792C34.1718 66.511 34.7145 66.9173 35.2726 67.2961M35.2726 78.952C35.5994 79.1311 36.2304 79.4389 36.8976 79.756M35.2726 67.2961C35.8976 75.8809 35.7726 78.5061 36.8976 79.756M61.5733 3.38136C62.035 3.64392 62.4629 3.9757 62.8975 4.38136M61.5733 3.38136C64.8503 3.53523 67.2229 4.88278 68.5225 5.98955M61.5733 3.38136C60.2822 2.64711 58.7271 2.45413 56.0226 2.70026M68.5225 5.98955C68.9121 6.32134 69.2053 6.6315 69.3975 6.88136M68.5225 5.98955C71.7725 5.63116 75.1475 10.7562 75.7725 11.2562C76.3975 11.7562 77.7725 12.1312 79.2725 13.6312C80.4959 14.8546 81.0541 16.4938 81.6931 18.0062M83.2725 21.3812C83.1892 21.1728 82.8475 20.4062 82.1475 19.0062C81.9862 18.6835 81.8376 18.3481 81.6931 18.0062M81.6931 18.0062C84.8316 20.1887 85.9516 23.0012 86.1552 26.2562M87.3976 32.6312C87.3559 31.9645 87.0476 30.2812 86.1475 28.8812C86.1991 27.9785 86.2081 27.1024 86.1552 26.2562M86.1552 26.2562C89.287 29.6547 89.6126 34.6288 89.3137 37.5062M89.3137 37.5062C89.2696 37.9308 89.2119 38.3097 89.1476 38.6312M89.3137 37.5062C91.4808 40.6062 91.5225 44.1312 91.2725 45.5062M91.2725 45.5062C92.1475 47.2562 90.6475 49.6312 90.5225 50.2562C90.3975 50.8812 90.8976 52.5062 89.2726 54.2562C88.6938 54.8795 88.0935 55.3773 87.5577 55.7562M91.2725 45.5062C90.2726 44.2562 90.3976 43.3812 89.7726 42.5062C89.1476 41.6312 88.2179 40.8812 87.5577 41.0062M87.5577 55.7562C86.8903 56.2282 86.3231 56.5156 86.0226 56.6312M87.5577 55.7562C85.9296 58.9562 82.9392 60.2562 81.6476 60.5062C80.0476 62.5062 77.0642 62.8395 75.7726 62.7562M75.7726 62.7562C78.8976 61.3812 80.1476 60.0062 80.8976 54.5062M75.7726 62.7562C75.6896 62.8012 75.6063 62.8451 75.5226 62.888M57.0226 58.1312C56.7309 59.8395 56.8476 63.5312 59.6476 64.6312C59.8558 64.713 60.0644 64.7842 60.2726 64.8458M57.0226 58.1312C59.3976 57.2562 61.7726 55.5062 63.2726 54.5062C64.7726 53.5062 67.7726 53.1312 71.3976 51.1312C75.0226 49.1312 75.6476 47.6312 77.3976 45.0062C77.988 44.1206 78.5073 43.3772 79.0226 42.7378M57.0226 58.1312C55.6517 58.6795 54.3183 59.1151 53.0226 59.2112M87.5577 41.0062C87.7127 41.5062 87.9726 42.7562 87.7726 43.7562M87.5577 41.0062C87.1743 39.842 85.9108 39.191 84.3976 39.3292M49.4188 47.6465C48.3492 47.7198 46.6476 48.1117 46.6476 50.1312C46.6476 55.3812 47.6476 57.5062 49.8976 58.6312C50.5536 58.9592 51.2203 59.1384 51.8976 59.203M49.4188 47.6465C49.7395 47.6245 50.0034 47.6312 50.1476 47.6312M49.4188 47.6465C49.6451 47.6373 49.8878 47.6312 50.1476 47.6312M49.4188 47.6465C47.358 47.7304 46.6476 48.0706 46.6476 46.3812V36.5062C46.6476 35.8755 46.6476 35.2891 46.7219 34.7562M50.1476 47.6312C50.7726 47.6312 53.0226 47.6312 54.5226 48.5062M46.7219 34.7562C46.8243 34.0214 47.068 33.3883 47.6476 32.8812M46.7219 34.7562C46.5593 32.3752 46.384 30.2769 46.7219 28.6345M46.7219 28.6345C47.0581 27.0002 47.9023 25.8173 49.7726 25.2562M46.7219 28.6345C46.4615 24.8183 46.1685 21.0042 46.9687 19.1312M51.4788 20.5062C51.2824 20.3903 51.0794 20.2766 50.8976 20.1312C50.2726 19.6312 49.5226 17.1312 47.7726 18.1312C47.4276 18.3283 47.1652 18.6712 46.9687 19.1312M51.4788 20.5062C51.9576 20.7885 52.3976 21.0834 52.3976 21.8812M51.4788 20.5062C52.5138 20.5062 52.5226 19.1728 52.3976 18.5062M46.9687 19.1312C46.6309 18.3427 46.6336 17.3776 46.9687 16.4788M57.8976 17.3937C57.6201 16.8967 57.2137 16.3305 56.6476 15.6312C54.5226 13.0062 51.2726 13.1312 49.1476 14.1312C48.3377 14.5123 47.7275 15.0932 47.321 15.7562M57.8976 17.3937C58.6616 18.7622 58.4478 19.6056 57.8976 21.2562M57.8976 17.3937C59.1976 19.1837 60.7726 19.9645 61.3976 20.1312M47.321 15.7562C46.4168 14.6003 46.1351 12.4794 46.9687 10.938M47.321 15.7562C47.1784 15.9886 47.0609 16.2312 46.9687 16.4788M46.9687 10.938C47.2168 10.4791 47.5638 10.0716 48.0226 9.75616M46.9687 10.938C46.428 9.14256 46.4788 7.55272 47.2726 6.62741M54.3975 2.88136C54.9823 2.80639 55.5221 2.74581 56.0226 2.70026M56.0226 2.70026C51.0226 -0.493839 49.1476 1.63096 48.6476 2.50616C48.1476 3.38136 46.8976 5.74895 47.2726 6.62741M47.2726 6.62741C48.0514 5.71963 49.5453 5.45143 51.8976 6.25616M68.6476 49.5059C62.0226 51.1312 60.0226 54.3809 58.2726 56.0059C56.5226 57.6309 55.5226 58.7916 53.0226 59.2112M53.0226 59.2112C52.6444 59.2393 52.2694 59.2384 51.8976 59.203M79.0226 42.7378C80.0347 41.4818 81.0317 40.6266 82.5226 39.8812C83.1606 39.5621 83.7987 39.3839 84.3976 39.3292M79.0226 42.7378C81.0226 40.0522 81.1059 37.1309 80.8976 36.0059M84.3976 39.3292C85.7043 38.5031 85.9675 35.0766 84.1132 33.3809M84.1132 33.3809C83.8388 33.13 83.5181 32.917 83.1476 32.7559M84.1132 33.3809C84.5407 31.4809 83.7309 28.5892 83.2725 27.3809M86.1552 32.7559C86.1552 33.1055 86.1866 33.394 86.2384 33.6309M86.2384 33.6309C86.409 34.4103 86.8008 34.6309 87.0226 34.6309M86.2384 33.6309C86.1651 35.0623 87.2175 36.5908 87.2983 38.1309M87.2983 38.1309C87.3092 38.3391 87.3024 38.5475 87.2726 38.7559M87.2983 38.1309C88.9106 38.9309 89.4529 40.0475 89.5226 40.5059M84.1132 27.1309C84.1132 25.2309 82.8027 23.8392 82.1475 23.3809C82.1475 22.2809 81.8446 21.7559 81.6931 21.6309M81.6931 20.1312C81.0251 19.0142 79.9894 18.073 79.0545 17.3937M79.0545 17.3937C78.3988 16.9173 77.7926 16.5698 77.3976 16.3809M79.0545 17.3937C78.129 14.9834 75.8142 13.1309 74.7726 12.5059M82.5226 36.0059C82.6059 34.5475 82.4476 31.0059 81.1476 28.5059C81.1476 27.2877 80.5376 24.4861 78.2687 21.8812M77.0226 20.6309C77.485 21.0373 77.8989 21.4566 78.2687 21.8812M78.2687 21.8812C78.2718 20.4812 77.3559 19.2976 76.8976 18.8809M77.1476 17.2559C75.5648 15.4572 73.7146 14.1978 72.3976 13.4775M72.3976 13.4775C71.884 13.1966 71.4515 12.9978 71.1476 12.8809M72.3976 13.4775C71.5976 11.7004 68.9809 9.92263 67.7726 9.25586M68.7726 7.38086C64.5226 4.88086 62.249 5.02217 61.5733 5.50586C58.6327 4.00586 55.5642 4.13119 54.3975 4.38136M54.3975 4.38136C52.5976 3.18136 51.0643 3.88136 50.5226 4.38136M54.3975 4.38136C55.6976 5.48096 56.1893 6.33689 56.2726 6.62741M74.5226 19.7559C73.1823 17.4229 71.1501 15.7941 69.1476 14.7046M69.1476 14.7046C67.1159 13.5992 65.1147 13.0487 63.8976 12.8809M69.1476 14.7046C66.5476 11.1456 63.1476 9.58919 61.7726 9.25586M56.2726 11.5059C55.6722 11.0115 55.0229 10.6792 54.3975 10.4618M54.3975 10.4618C53.2521 10.0634 52.1866 10.0501 51.6476 10.1309M54.3975 10.4618C55.6976 9.69704 56.7726 9.67273 57.1476 9.75616M70.1476 28.0059C69.1506 25.015 67.6031 23.654 66.0226 23.1648M66.0226 23.1648C63.8379 22.4885 61.5905 23.4779 60.6476 24.1309M66.0226 23.1648C65.4937 20.7394 65.1469 19.3036 64.4526 18.1312M64.4526 18.1312C63.6701 16.8099 62.4462 15.823 60.0226 14.1312M64.4526 18.1312C63.2726 14.8809 67.8974 16.7556 68.5225 17.6309M72.2726 23.7559C73.3673 25.081 73.74 26.6634 73.7875 28.0059M73.7875 28.0059C73.8225 28.9934 73.6815 29.8511 73.5226 30.3809M73.7875 28.0059C74.4052 27.3246 74.9228 27.2106 75.3976 27.4647M71.8976 41.8509C73.8659 42.9659 76.1683 40.7449 77.3976 38.3809C78.1669 36.9015 78.3479 35.282 78.2191 33.7877M71.8976 41.8509C71.8361 41.8161 71.775 41.778 71.7142 41.7366M71.8976 41.8509C71.8345 41.8115 71.7734 41.7734 71.7142 41.7366M71.7142 41.7366C71.1485 41.3511 70.6148 40.6753 70.1476 39.6309M71.7142 41.7366C70.1291 40.7531 69.8751 40.7376 69.2726 41.8509M78.2191 33.7877C78.8619 36.9622 78.7726 38.8047 78.6476 39.3292M78.2191 33.7877C78.1694 33.2118 78.0737 32.6544 77.948 32.1309M77.948 32.1309C77.7108 31.1434 77.3667 30.2761 77.0226 29.6309C76.4767 28.6074 75.9681 27.7702 75.3976 27.4647M77.948 32.1309C77.764 30.4465 77.9741 29.3251 78.4517 28.8812M78.4517 28.8812C78.7539 28.6003 79.1632 28.5907 79.6476 28.8812M78.4517 28.8812C78.9084 27.6809 78.7726 27.2142 78.6476 27.1309M75.3976 27.4647C77.0226 25.0059 74.6775 21.8806 73.7875 21.6309M51.4788 35.3809C52.06 35.2559 53.3976 34.7562 54.3976 35.3809C55.3976 36.0056 56.2726 35.0059 57.8976 34.0059C58.4405 33.6718 58.8438 33.0726 59.0285 32.3809M56.8976 28.5059C58.8953 29.255 59.3965 31.0019 59.0285 32.3809M59.0285 32.3809C60.0238 32.4809 60.7726 33.1725 61.0226 33.5059M52.3976 41.8509C52.51 41.5658 52.6367 41.3043 52.7726 41.0653M52.7726 41.0653C53.4831 39.8154 54.4429 39.1807 54.8976 39.0059M52.7726 41.0653C53.7726 39.2177 53.5226 38.5892 53.2726 38.5059M58.1476 43.2559C58.7726 42.2559 61.0226 39.8809 62.5226 40.2559C63.0009 40.3754 63.4539 40.4061 63.8976 40.3152M58.1476 43.2559C56.8976 42.2559 56.0226 42.7378 53.7726 44.2559M58.1476 43.2559C58.8523 43.7559 58.6912 44.7975 58.5226 45.2559M65.2726 30.3809C67.9504 33.1703 68.238 34.9637 67.2021 37.0059M67.2021 37.0059C67.0774 37.2515 66.9337 37.5008 66.7726 37.7559C65.7509 39.3735 64.8453 40.1213 63.8976 40.3152M67.2021 37.0059C68.5585 34.9059 69.9809 34.8809 70.5226 35.1309M63.8976 40.3152C64.6476 42.7378 64.3976 44.1315 63.2726 45.0062C63.0973 45.1425 62.9311 45.2666 62.7726 45.3848M56.2726 51.1312C58.0726 48.4309 59.9392 47.7559 60.6476 47.7559M60.6476 47.7559C61.8476 47.7559 63.0642 48.2561 63.5226 48.5062M60.6476 47.7559C61.2748 46.5013 61.9021 46.0337 62.7487 45.4026L62.7726 45.3848M62.7726 45.3848C65.2726 44.5059 67.2726 46.3815 68.2726 47.6312M86.8976 49.7559C87.8976 55.2559 83.8976 58.8809 80.6476 58.8809M89.2726 48.5059C89.2726 50.2059 88.7726 50.7142 88.5226 50.7559C88.8441 49.2556 88.7062 47.296 87.5577 47.0823M87.5577 47.0823C87.3665 47.0467 87.1473 47.0595 86.8976 47.1309C85.1476 47.6309 83.7726 49.3812 83.2726 50.2562C83.2131 50.3602 83.129 50.4483 83.0226 50.5264M87.5577 47.0823C88.6296 46.8211 88.6476 45.2559 88.5226 44.5059M83.0226 50.5264C83.6226 50.3102 84.0226 50.5893 84.1476 50.7559M83.0226 50.5264C82.409 50.9768 81.0566 51.0938 79.4488 52.0059M79.4488 52.0059C78.9904 52.2659 78.5113 52.5905 78.0226 53.0059C76.6065 54.2095 75.792 55.8546 74.8976 57.3954M79.4488 52.0059C80.1078 51.0059 80.3559 49.8392 80.3976 49.3809M74.8976 57.3954C74.213 58.5749 73.4815 59.6934 72.3976 60.5062M74.8976 57.3954C72.0842 57.2203 69.4761 57.9527 68.0226 58.5411M68.0226 58.5411C67.7195 58.6638 67.4667 58.7802 67.2726 58.8809M68.0226 58.5411C67.7487 58.4882 67.4852 58.492 67.2342 58.5411M68.6476 64.4969C67.7476 63.9041 68.7726 62.9225 69.3976 62.5059M68.6476 64.4969C68.8099 64.4934 68.9767 64.4875 69.1476 64.4791M68.6476 64.4969C68.0853 64.509 67.5778 64.4935 67.1476 64.4619M64.682 62.7562C64.5981 62.5921 64.5413 62.4241 64.5226 62.2559C64.4137 61.2759 65.5379 58.873 67.2342 58.5411M64.682 62.7562C65.0469 63.4698 65.9233 64.1101 66.3976 64.3812M64.682 62.7562C63.3545 61.0559 61.6059 60.7975 60.8976 60.8809M66.3976 64.3812C66.6089 64.4129 66.8611 64.4409 67.1476 64.4619M66.3976 64.3812C66.15 64.5049 65.8093 64.6427 65.3976 64.7683M67.2342 58.5411C65.9649 57.8129 64.0642 58.0475 63.2726 58.2559M60.2726 64.8458C60.3978 64.8828 60.5228 64.9164 60.6476 64.9466M60.2726 64.8458C59.8308 65.2769 59.3718 65.6885 58.8976 66.0792M51.8976 59.203C51.2976 59.7453 50.1476 60.2142 49.6476 60.3809M75.5226 62.888C76.0226 64.4969 74.3976 66.0059 74.3976 66.8809C74.3976 67.1897 74.3197 67.4984 74.1476 67.8567M75.5226 62.888C75.0319 63.1395 74.529 63.3545 74.0226 63.5378M54.7726 68.7575C55.6476 75.7559 54.0226 78.8809 53.7726 80.6309M54.7726 68.7575C53.4808 69.3985 52.1371 69.8981 50.7726 70.2375M54.7726 68.7575C55.6319 68.3311 56.4682 67.8421 57.2726 67.2961M53.7726 80.6309C53.3976 82.5059 53.0226 84.0059 53.0226 85.2559C53.0226 86.5059 53.2726 88.3809 52.7726 89.0059C52.4927 89.3557 51.6645 89.9797 50.3976 90.4613M53.7726 80.6309C54.2437 80.4149 54.9646 80.0806 55.6476 79.756M50.7726 70.2375C52.3976 74.7559 50.5226 80.5059 50.3976 82.6309C50.2726 84.7559 50.0226 88.1668 50.3976 90.4613M50.7726 70.2375C50.072 70.4117 49.3659 70.5437 48.6585 70.6309M50.3976 90.4613C49.4012 90.8401 47.7584 91.1309 46.2726 91.1309V75.5059C46.2726 74.3809 47.0226 71.8809 48.6585 70.6309M74.0226 63.5378C74.1226 65.2122 74.1476 67.1147 74.1476 67.8567M74.0226 63.5378C73.4813 63.7336 72.9361 63.8931 72.3976 64.0218M74.1476 67.8567C73.8422 68.4922 73.24 69.2832 72.249 70.5059M72.3976 64.0218C72.5226 67.8567 72.4755 69.7559 72.249 70.5059M72.3976 64.0218C71.8451 64.1539 71.2996 64.2535 70.7726 64.3268M72.249 70.5059C72.2157 70.547 72.1818 70.5887 72.1476 70.6309C71.6535 71.2389 70.9463 71.9047 70.1476 72.5511M70.7726 64.3268C70.7726 68.2559 70.7726 71.5963 70.1476 72.5511M70.7726 64.3268C70.2046 64.4057 69.6581 64.454 69.1476 64.4791M70.1476 72.5511C69.5179 73.0605 68.8314 73.5579 68.1476 74.0053M69.1476 64.4791C68.8976 66.6309 68.8976 70.2559 68.7726 71.1309C68.6476 72.0059 68.6476 73.3797 68.1476 74.0053M68.1476 74.0053C67.5489 74.397 66.9522 74.7504 66.3976 75.04M67.1476 64.4619C67.2726 67.8567 66.8976 71.8809 66.7726 72.6309C66.6476 73.3809 66.6476 74.6992 66.3976 75.04M66.3976 75.04C65.7461 75.3803 65.1526 75.6326 64.682 75.7559C64.5849 75.7813 64.4901 75.8067 64.3976 75.8322M65.3976 64.7683C65.1476 66.8809 65.3976 69.6309 65.2726 70.8809C65.1476 72.1309 65.0226 75.2835 64.3976 75.8322M65.3976 64.7683C64.9669 64.8998 64.4585 65.0181 63.8976 65.0935M64.3976 75.8322C63.7016 76.0235 63.1329 76.2148 62.6476 76.4061M63.8976 65.0935C63.6476 69.1309 63.3976 75.5564 62.6476 76.4061M63.8976 65.0935C63.3923 65.1615 62.8445 65.1946 62.2726 65.1713M62.6476 76.4061C61.989 76.6657 61.484 76.9253 61.0226 77.185M62.2726 65.1713C62.0226 71.7559 62.0226 75.7391 61.0226 77.185M62.2726 65.1713C61.7465 65.1498 61.2001 65.0806 60.6476 64.9466M61.0226 77.185C60.9806 77.2086 60.9389 77.2322 60.8976 77.2559C60.4524 77.5102 59.716 77.8294 59.0176 78.1309M60.6476 64.9466C60.0226 72.0059 60.1377 77.1309 59.0176 78.1309M59.0176 78.1309L58.9765 78.1486C58.3175 78.4331 57.6983 78.7004 57.3976 78.8809C57.3633 78.9014 57.3213 78.9253 57.2726 78.952M58.8976 66.0792C58.3976 74.8809 58.3976 77.8981 57.2726 78.952M58.8976 66.0792C58.3734 66.511 57.8307 66.9173 57.2726 67.2961M57.2726 78.952C56.9458 79.1311 56.3148 79.4389 55.6476 79.756M57.2726 67.2961C56.6476 75.8809 56.7726 78.5061 55.6476 79.756" stroke="black" stroke-linecap="round" stroke-linejoin="round"/>
</svg>
