<svg width="85" height="90" viewBox="0 0 85 90" fill="none" xmlns="http://www.w3.org/2000/svg">
<path d="M81.6251 60.707C80.8751 58.707 81.7501 45.082 72.2501 42.707C72.2501 38.8196 69.954 36.1685 67.9598 34.4568C69.25 34.4568 66.75 30.708 66.125 29.583C65.5 28.458 62.375 25.208 62.5 24.458C62.625 23.708 63 22.833 64.25 23.333C65.5 23.833 66 23.708 66.375 23.208C66.5658 22.9536 66.7566 22.6345 66.7992 22.333C68.125 22.958 68.375 22.583 68.875 22.333C69.375 22.083 69.75 20.708 69.375 20.083C69.1069 19.6361 67.6885 19.0614 66.125 18.6788C68.5 17.458 68.25 17.208 68.375 16.833C68.5 16.458 66.875 14.458 66.25 14.083C65.75 13.783 64.1031 14.7908 63.3115 15.3323C63.7438 14.1785 63.9456 13.2948 63.875 13.083C63.75 12.708 62.25 12.208 61.75 12.458C61.35 12.658 60.9592 14.4575 60.8138 15.3323C60.8083 14.081 59.6756 12.7281 59.125 11.9573C58.5 11.0823 58.625 9.45725 57.75 9.08225C56.875 8.70725 55.75 10.0823 54.625 11.5545C54.9728 10.4591 55.4715 8.42861 55.375 8.33196C54.75 7.83196 53.5 7.95696 53.375 8.33196C53 9.54029 52.225 12.207 52.125 13.207C49.8484 15.2559 48.4932 16.7981 47.5 18.253C43.75 16.6731 39.125 15.833 33.8277 18.333C31.1554 15.708 32.625 10.833 33.25 9.45801C33.875 8.08301 36 6.95801 36.75 6.70801C37.5 6.45801 38.5 7.45801 38.75 7.45801C39 7.45801 39.5 7.20801 39.375 6.70801C39.275 6.30801 38.5 5.87467 38.125 5.70801C38.3334 5.74967 39 5.80801 40 5.70801C40.5 5.33301 40.125 2.45801 39.5 2.20801C38.875 1.95801 36.25 2.33301 33.8277 3.45801C33.9047 2.72799 33.0822 1.41489 32.75 1.08273C32.375 0.707727 31 1.70773 31 2.08273C31 2.20773 31.15 2.63273 31.75 3.33273C32.5 4.20773 31 5.45773 31 5.20773C31 4.95773 30.5 4.08225 30.25 3.83225C30 3.58225 28.75 4.45725 29 4.70725C30.25 6.58225 29.125 8.20725 28.125 12.4573C27.125 16.7073 29.125 20.2073 29.75 21.7073C29.125 21.5823 26.875 16.9573 24.5 11.2073C23.5 10.7073 20.125 12.9573 20.375 13.7073C22.5 19.4573 26.375 25.0823 26.875 25.9573C26.9432 26.0765 26.9672 26.2469 26.9556 26.458C20 21.208 14.875 19.083 13.75 18.208C12.625 17.333 10.875 15.458 9.87503 15.458C8.87503 15.458 6.87503 17.708 6.87503 18.208C6.87503 18.608 10.5417 20.958 12.375 22.083C11.0417 21.8747 7.82503 21.833 5.62503 23.333C4.75003 22.583 4.37503 22.458 3.75003 23.208C3.37503 23.583 4.25003 24.458 3.87503 24.708C3.50003 24.958 3.125 23.833 2.625 23.583C2.125 23.333 1.25 23.958 1.25 24.458C1.25 24.958 2 25.083 1.625 26.083C1.25 27.083 1 27.208 1 27.708C1 28.208 3.125 30.458 4.5 29.958C4.875 29.833 4.375 28.708 6.125 27.458C7.875 26.208 12.5327 25.208 17.769 27.708C16.355 30.6626 15.25 34.6257 15.25 37.0822C15.25 40.9576 16.375 42.2072 17.8581 46.7072C17.2011 48.3909 16.5344 50.3751 16.3751 52.207C16.1251 55.082 17.1251 56.582 19.3751 61.832C21.6251 67.082 25.0001 68.832 25.7501 69.582C26.5001 70.332 27.3751 71.707 27.8751 72.207C28.2751 72.607 29.3751 72.957 29.8751 73.082C30.4167 74.1654 32.1001 76.657 34.5001 77.957C37.5001 79.582 42.2501 80.707 47.1251 82.832C52.0001 84.957 57.8751 85.707 59.7501 86.207C61.6251 86.707 67.3751 88.707 68.6251 88.832C69.8751 88.957 71.6251 88.582 73.8751 88.332C76.1251 88.082 79.3751 86.457 81.6251 84.832C83.8751 83.207 83.7501 80.957 84.3751 76.332C85.0001 71.707 82.3751 62.707 81.6251 60.707Z" fill="#C9312E"/>
<path d="M32.5074 56.9245C32.7349 56.9197 33.1422 56.5907 33.625 55.625C34.5 52.1248 36.125 51.8359 36.875 51.168C38 50.166 37.8368 49.0659 38 48.25C38.25 47 39.0706 45.7043 39.25 45.375C39.75 44.457 41.7518 40.6197 41.375 41.75C41 42.875 40.25 44 39.25 46C38.25 48 38.5 49.5 38.875 50.25C41 51.875 42.875 51 43.625 50.5C44.375 50 44.125 49.625 44.125 48.25C44.125 46.875 44 46.5 43.25 45.962C43.5635 46.088 43.9716 46.3123 44.125 46.6096C44.625 45.3442 44.25 44.5 43.75 43.6815C44.3164 44.1098 44.7173 44.1534 44.7313 43.5C44.8086 43.9777 44.7817 44.6509 44.75 45C44.9583 44.625 45.575 43.625 46.375 42.625C46.375 42.6067 46.381 42.582 46.3957 42.5525C46.4479 42.4474 46.6096 42.2811 47 42.125C47.625 41.875 48.6199 41.25 49.0251 40.5C49.067 40.8446 49.0172 41.249 48.6199 41.6642C47.8514 41.8376 47.7975 42.5403 48.125 42.8186C47.9359 42.7808 47.7034 42.7423 47.375 42.625C46.625 42.3571 45.25 45.25 44.875 46C44.5 46.75 44.375 48.125 44.875 50.25C46 51.125 47.375 50.75 48.125 50.75C48.875 50.75 50 51 50.5 50.5C51 50 50.5 49.625 48.875 48.9498C50.0405 49.014 49.8283 48.1763 50.5 47.1069C50.2203 47.8155 49.6294 49 50 49C50.5 49 51 49.625 51.25 49.875C51.5 50.125 52.25 50.125 53.5501 49.625C54.1002 49.375 55.25 49.375 56.625 49.7505C56.4256 49.7022 56.2166 49.6559 56 49.625C55.125 49.5 53.125 50.125 51 51C51.5 51.375 52.25 52.0002 54.8451 52.5C53.3315 52.8354 51.2747 51.9333 50.625 51.5C49.875 50.9998 48.75 51.875 46.875 51.5C48.125 52.25 47.875 54 47.875 54.375C47.875 54.75 49 56 50 56.3403C49.8155 56.3754 49.6456 56.4272 49.5 56.5C49.25 56.375 47.625 55.375 47.0643 54.25C47.0821 53.9288 47.0518 53.5181 47 53C46.9 52 45.2917 51.0833 44.5 50.75C44.1667 51.1667 43.1 52.0002 41.5 52.0002C39.9 52.0002 38.8333 51.0001 38.5 50.5C38.3333 50.875 37.675 51.8 36.375 52.5C35.075 53.2 34.4167 55.2083 34.25 56.125C34.0833 57.0417 33.95 58.95 34.75 59.25C35.75 59.625 36.25 60.25 37 60.7523C35.9375 60.6762 36.1841 62.2023 36.625 62.7797C36.5479 62.7603 36.4648 62.75 36.375 62.75C34.875 62.75 35.125 64.75 35.662 66.75C34.8423 65.6857 34.75 64.3948 34.75 63.7502C34.75 63.0002 36 61.375 35.5 60.8752C35.1 60.4753 33.75 59.6251 33.125 59.25C32.875 59.25 32.475 59.125 32.875 58.6252C33.2254 57.5739 32.8339 57.0854 32.5074 56.9245C32.4522 56.9256 32.4075 56.9077 32.375 56.8752C32.4163 56.8855 32.4612 56.9017 32.5074 56.9245Z" fill="#D66568"/>
<path d="M58.875 45C59.275 45.2 59.499 45.0833 59.561 45C59.7763 45.429 60.1487 45.7803 60.5166 46C62.25 48.25 63.5595 52 64.1548 52.5C64.75 53 67.375 54.125 68.25 54C68.9759 53.8963 69.7018 53.9647 70.2136 53.8482C70.3258 53.8138 70.4232 53.7807 70.5 53.75C70.4148 53.7926 70.3187 53.8243 70.2136 53.8482C69.5954 54.038 68.529 54.2692 68 54.375C69.0833 54.8333 71.45 55.875 72.25 56.375C72.9525 56.8141 73.9634 57.0925 74.538 57.2102L74.75 57.25C74.6891 57.2398 74.6177 57.2266 74.538 57.2102L72.75 56.875C73 57.4167 73.7 58.6 74.5 59C75.5 59.5 76.875 61.125 77.25 62.25C76.25 60.375 74.25 59.375 73.125 59.5C73.725 60.6 74.2083 61.4583 74.375 61.75C73.7917 60.9583 72.55 59.25 72.25 58.75C71.875 58.125 71 57 70.5 56.75C70 56.5 64.5952 53.875 64.375 54.25C64.1548 54.625 64.875 55.75 64.75 56.75C64.625 57.75 64.625 58.5 64.875 59.125C65.125 59.75 66 61.25 66.375 62.375C66.75 63.5 66.5 64.5 67.375 64.875C68.25 65.25 69.625 67 70.625 67.625C71.425 68.125 73.375 68.75 74.25 69L72.625 68.75C72.7231 69.0771 73.0216 69.7535 73.5324 70.3195C73.6809 70.4593 73.8372 70.6035 74 70.75C73.8281 70.6211 73.6723 70.4744 73.5324 70.3195C72.769 69.6004 72.2093 68.9942 72 68.75L70.5 68.25C70.811 69.0275 71.4992 70.574 71.9149 70.9401C71.9442 70.9635 71.9726 70.9835 72 71C71.9732 70.9866 71.9448 70.9664 71.9149 70.9401C71.2777 70.4314 70.2335 68.364 69.875 68.125C69.5 67.875 67.25 65.625 66.875 65.875C66.5 66.125 66.75 67.875 66.625 68.5C66.5 69.125 67.125 71.375 67.125 73.25C67.125 75.125 67.5 77.125 67.875 77.875C68.25 78.625 68.625 80.5 69.25 80.875C69.8076 81.2095 70.6636 80.9472 71.0193 79.9992C71.0499 79.8863 71.0859 79.7618 71.125 79.625C71.098 79.7599 71.0623 79.8845 71.0193 79.9992C70.8542 80.6081 70.8477 80.875 71.375 80.875C71.875 80.875 72.9167 80.7917 73.375 80.75L69.5 81.375C69.647 81.6506 69.9706 82.0721 70.4837 82.5C70.6777 83.0463 70.3325 83.6588 71 84.4343C70.635 84.4055 70.4476 84.5979 70.4091 84.8752C70 83.625 69.25 82.125 68.25 81C67.25 79.875 67.25 78.125 66.625 77.875C66 77.625 66.75 79.875 67.125 80.625C67.5 81.375 68.25 82.75 68.375 83.5C68.4586 84.0017 69.0141 85.2955 69.4131 86.1689C69.4925 86.3367 69.5643 86.4914 69.625 86.625C69.5635 86.4952 69.4913 86.3402 69.4131 86.1689C68.9475 85.1861 68.2167 83.7563 67.875 83.5C67.7152 83.3802 67.6964 83.4824 67.75 83.6857C66.875 81.875 66 79.875 65.625 79.75C65.25 79.625 64.375 81.75 64.375 82.625C64.375 83.5 65.125 84.75 65 85.625C64.9 86.325 64.625 86.5833 64.5 86.625C64.5417 86.1667 64.6 85.15 64.5 84.75C64.375 84.25 63.75 84.25 63.625 83.875C63.5 83.5 63.875 82.5 63.5 82.5C63.125 82.5 61.875 83.625 61.125 83.375C60.375 83.125 60.125 82.625 56.75 82.5C59.75 82.25 60.75 82.75 61.625 82.625C62.5 82.5 64 81 64.25 80.5C64.5 80 65.75 78.125 65.625 75.125C65.5 72.125 64.375 71.5 64.5 68.875C64.625 66.25 64.5 63.875 63.5 62.125C62.9545 61.1704 62.8042 60.0067 62.8034 59.125C61.625 59.625 60.125 61.375 59.875 61.875C59.625 62.375 58.75 65.75 58.375 66.25C58 66.75 58.75 68.625 58.625 69.25C58.5312 69.7188 57.9453 70.3281 57.6582 71.5C58.125 69.375 57.625 67.875 57.5 67.625C57.4233 67.4716 57.5017 67.0635 57.5851 66.75C56.875 67.375 55.625 68.375 55.5 68.875C55.4796 68.9568 55.4357 69.0486 55.375 69.1472C53.9939 69.7885 52.9086 70.4796 52.316 71.2161C52.1548 71.4847 51.999 71.7857 51.853 72.125C51.9194 71.8149 52.078 71.5118 52.316 71.2161C53.2832 69.6046 54.4464 69.1607 54.875 68.625C55.375 68 56.8418 66.375 57.25 66.125C57.6582 65.875 58.875 62.875 58.625 62.625C58.375 62.375 57.25 62.625 56.75 62.875C56.25 63.125 55.875 64.625 55.375 65.125C54.9586 65.5414 54.3688 65.3509 53.75 66.4308C54.375 64.875 55 64.875 55.125 64.375C55.225 63.975 55.8333 63.0417 56.125 62.625C56.0384 62.495 55.8324 62.3043 55.5 62.1651C55.3129 62.0094 55.1112 61.8902 54.9031 61.8005C54.7064 61.7449 54.4901 61.6816 54.25 61.6106C54.4685 61.6475 54.6892 61.7084 54.9031 61.8005C56.2428 62.1793 56.6783 62.202 57.5851 61.875C58.625 61.5 58.875 61.25 59.25 60.375C59.625 59.5 61.25 58.375 61.375 57.875C61.5 57.375 61.625 54.125 60.75 52.625C59.875 51.125 58.125 47.3282 56 46C54.6327 45.1454 53.9381 43.9415 53.5501 43.125C56 43.125 56.9398 43.25 58.0324 43.875C58.1504 44.4031 58.4535 44.8595 58.875 45Z" fill="#D66568"/>
<path d="M59.125 12.8749C58.75 12.3749 58.375 12.125 58 10.5C57.9583 10.125 57.625 9.5 57.375 9.75C56.8224 10.3026 57.25 12.3749 58 13.4999C58.75 14.6249 60.25 15.9999 60.375 15.3749C60.5 14.7499 59.5 13.3749 59.125 12.8749Z" fill="#B4271E"/>
<path d="M53.375 8.36592C53.5 7.99092 54.75 7.86592 55.375 8.36592C55.625 8.74062 53.375 8.74121 53.375 8.36592Z" fill="#B4271E"/>
<path d="M20.625 24.8245C20 25.3245 19.5 28.3245 20.75 30.8245C22.125 33.4495 22 34.0745 22.75 35.1995C23.4871 36.3051 24.75 35.6995 24.75 34.5745C24.75 33.4495 23.25 31.9495 22.625 30.6995C22.0947 29.6388 22 26.6995 21.75 25.8245C21.5 24.9495 21.25 24.3245 20.625 24.8245Z" fill="#B4271E"/>
<path d="M41.375 41.5C39.75 40.75 38 39.5 36.5 36.375C36.5833 36.4167 36.825 36.5 37.125 36.5C37.5 36.5 38.5 36.125 39 36.125C39.4 36.125 40.0833 36.7083 40.375 37C40.7917 37.4583 41.575 39 41.375 41.5Z" fill="#B4271E"/>
<path d="M36.5 29C38.25 25.875 40.75 26 42.125 26.25C39.5 28.75 37.5 29.125 36.5 29Z" fill="#B4271E"/>
<path d="M72.2501 42.707C81.7501 45.082 80.8751 58.707 81.6251 60.707C82.3751 62.707 85.0001 71.707 84.3751 76.332C83.7501 80.957 83.8751 83.207 81.6251 84.832C79.3751 86.457 76.1251 88.082 73.8751 88.332C71.6251 88.582 69.8751 88.957 68.6251 88.832C67.3751 88.707 61.6251 86.707 59.7501 86.207C57.8751 85.707 52.0001 84.957 47.1251 82.832C42.2501 80.707 37.5001 79.582 34.5001 77.957C32.1001 76.657 30.4167 74.1653 29.8751 73.082M72.2501 42.707C72.2572 43.0822 71.625 43.5818 71.125 43.9568C70.6881 44.2846 70.2511 44.2304 69.5639 44.6287M72.2501 42.707C72.2501 38.8196 69.954 36.1685 67.9598 34.4568M29.8751 73.082C29.3751 72.957 28.2751 72.607 27.8751 72.207C27.3751 71.707 26.5001 70.332 25.7501 69.582C25.0001 68.832 21.6251 67.082 19.3751 61.832C17.1251 56.582 16.1251 55.082 16.3751 52.207C16.5344 50.3751 17.2011 48.3909 17.8581 46.7072M29.8751 73.082C30.6251 73.3094 30.75 72.332 30.5 71.332C30.25 70.332 29.8751 69.082 29.25 68.082C28.804 67.3684 28.9309 65.5089 29.2219 64.457M29.5 46.457C30.25 46.332 31.75 47.582 31.75 48.582C31.75 49.0252 31.9683 49.1629 32.25 49.3045M29.5 46.457C29.3 46.957 28.3334 47.9153 27.875 48.332M29.5 46.457C29.7278 46.0014 29.2637 45.3152 28.5 44.8467M30.5 61.832C31.5 61.207 32.375 60.082 32.875 58.582C33.275 57.382 32.7084 56.9153 32.375 56.832C32.5417 56.9987 33.025 57.032 33.625 55.832C34.375 54.332 33.75 53.207 33.125 53.207C32.5 53.207 32.625 52.457 33.125 51.957C33.625 51.457 33.375 50.207 32.875 49.707C32.6705 49.5025 32.4451 49.4025 32.25 49.3045M30.5 61.832C30.875 60.832 30.125 60.582 28.875 60.832M30.5 61.832C30.25 62.707 30.125 63.582 29.625 63.707C29.4818 63.7428 29.3387 64.0349 29.2219 64.457M32.25 49.3045C31.75 49.0265 31.2084 49.457 31 49.707M29.2219 64.457C28.9444 63.957 28.5417 63.582 28.375 63.457M58.75 36.8318C58.3223 36.8318 57.9861 36.7302 57.75 36.5589M57.75 36.5589C57.1581 36.1292 57.1958 35.2611 58 34.4568C56.875 33.3318 57.375 31.707 59.125 31.207C60.875 30.707 61.75 31.957 62.875 32.332C64 32.707 64.75 31.957 66.875 33.582C67.2139 33.8412 67.5814 34.1321 67.9598 34.4568M57.75 36.5589C56.55 37.9773 56.6667 39.3318 56.875 39.8318C56.8334 40.2068 56.85 41.0068 57.25 41.2068C56.85 41.9068 57.6667 42.4152 58.125 42.5818M58.125 42.5818C58.2084 42.4152 58.475 42.0318 58.875 41.8318M58.125 42.5818C57.9608 42.9651 57.9404 43.4203 58.0324 43.8318M59.375 44.2068C59.375 44.4737 59.4454 44.7265 59.561 44.9568M59.561 44.9568C59.499 45.0402 59.275 45.1568 58.875 44.9568C58.4535 44.8163 58.1505 44.36 58.0324 43.8318M59.561 44.9568C59.7763 45.3858 60.1487 45.7371 60.5167 45.9568M62 41.2068C61.7245 41.7579 61.6683 42.3427 61.7694 42.8497M63.375 44.2068C64.625 43.9568 63.875 43.0822 64 42.707M63.375 44.2068C62.5842 44.365 61.9435 43.7228 61.7694 42.8497M63.375 44.2068C63.5037 44.5072 63.8058 44.6188 64.1548 44.6287M61.7694 42.8497C62.3539 42.7356 63.0834 41.7069 63.375 41.2068M64.1548 44.6287C64.6193 44.6418 65.167 44.4746 65.5 44.3318C65.7917 44.5818 66.5 45.0318 67 44.8318C67.625 44.5818 68.375 45.4568 69.25 44.8318C69.3604 44.753 69.4648 44.6861 69.5639 44.6287M64.1548 44.6287C64.2282 44.8631 64.45 45.4318 64.75 45.8318C65.125 46.3318 64 46.9568 63.625 46.4568C63.4177 46.519 63.0515 46.5812 62.625 46.5664M62.625 46.5664C62.1944 46.5515 61.7022 46.4581 61.25 46.2068C61.0493 46.2068 60.7842 46.1166 60.5167 45.9568M62.625 46.5664C63 47.4568 64.25 47.3318 64.75 47.5818C65.25 47.8318 65.375 48.3318 66.5 47.5818C67.625 46.8318 68 45.4568 68.625 45.4568C69.25 45.4568 69.7528 44.8005 69.5639 44.6287M60.5167 45.9568C62.25 48.2068 63.5596 51.9568 64.1548 52.4568C64.75 52.9568 67.375 54.0818 68.25 53.9568C69.125 53.8318 70 53.9568 70.5 53.7068C70 53.9068 68.625 54.2068 68 54.3318C69.0834 54.7902 71.4501 55.8318 72.2501 56.3318C73.05 56.8318 74.25 57.1235 74.75 57.2068L72.75 56.8318C73 57.3735 73.7 58.5568 74.5 58.9568C75.5 59.4568 76.875 61.0818 77.25 62.2068C76.25 60.3318 74.25 59.3318 73.125 59.4568C73.725 60.5568 74.2084 61.4152 74.375 61.7068C73.7917 60.9152 72.5501 59.2068 72.2501 58.7068C71.875 58.0818 71 56.9568 70.5 56.7068C70 56.4568 64.5953 53.8318 64.375 54.2068C64.1548 54.5818 64.875 55.7068 64.75 56.7068C64.625 57.7068 64.625 58.4568 64.875 59.0818C65.125 59.7068 66 61.2068 66.375 62.3318C66.75 63.4568 66.5 64.4568 67.375 64.8318C68.25 65.2068 69.625 66.9568 70.625 67.5818C71.425 68.0818 73.375 68.7068 74.25 68.9568L72.625 68.7068C72.75 69.1235 73.2 70.1068 74 70.7068C73 69.8068 72.25 68.9985 72 68.7068L70.5 68.2068C70.8334 69.0402 71.6 70.7568 72 70.9568C71.375 70.5818 70.25 68.3318 69.875 68.0818C69.5 67.8318 67.25 65.5818 66.875 65.8318C66.5 66.0818 66.75 67.8318 66.625 68.4568C66.5 69.0818 67.125 71.3318 67.125 73.2068C67.125 75.0818 67.5 77.0818 67.875 77.8318C68.25 78.5818 68.625 80.4568 69.25 80.8318C69.875 81.2068 70.875 80.8318 71.125 79.5818C70.875 80.4568 70.75 80.8318 71.375 80.8318C71.875 80.8318 72.9167 80.7485 73.375 80.7068L69.5 81.3318C69.647 81.6075 69.9706 82.0289 70.4837 82.4568M73.375 83.8318C72.0893 83.5523 71.1342 82.9994 70.4837 82.4568M70.4837 82.4568C70.6777 83.0031 70.3325 83.6157 71 84.3912M72.25 85.3318C71.6388 84.9923 71.249 84.6804 71 84.3912M71 84.3912C70.635 84.3623 70.4476 84.5548 70.4091 84.832M70.75 85.8318C70.4934 85.5111 70.3685 85.1244 70.4091 84.832M70.4091 84.832C70 83.5818 69.25 82.0818 68.25 80.9568C67.25 79.8318 67.25 78.0818 66.625 77.8318C66 77.5818 66.75 79.8318 67.125 80.5818C67.5 81.3318 68.25 82.7068 68.375 83.4568C68.475 84.0568 69.25 85.7902 69.625 86.5818C69.2084 85.6652 68.275 83.7568 67.875 83.4568C67.7152 83.337 67.6964 83.4393 67.75 83.6425M68.25 84.832C68.0749 84.4817 67.8306 83.948 67.75 83.6425M67.75 83.6425C66.875 81.8318 66 79.8318 65.625 79.7068C65.25 79.5818 64.375 81.7068 64.375 82.5818C64.375 83.4568 65.125 84.7068 65 85.5818C64.9 86.2818 64.625 86.5402 64.5 86.5818C64.5417 86.1235 64.6 85.1068 64.5 84.7068C64.375 84.2068 63.75 84.2068 63.625 83.8318C63.5 83.4568 63.875 82.4568 63.5 82.4568C63.125 82.4568 61.875 83.5818 61.125 83.3318C60.375 83.0818 60.125 82.5818 56.75 82.4568C59.7501 82.2068 60.75 82.7068 61.625 82.5818C62.5 82.4568 64 80.9568 64.25 80.4568C64.5 79.9568 65.75 78.0818 65.625 75.0818C65.5 72.0818 64.375 71.4568 64.5 68.8318C64.625 66.2068 64.5 63.8318 63.5 62.0818C62.9546 61.1273 62.8043 59.9635 62.8035 59.0818M62.875 58.0818C62.8353 58.3205 62.8031 58.6704 62.8035 59.0818M62.8035 59.0818C61.625 59.5818 60.125 61.3318 59.875 61.8318C59.625 62.3318 58.75 65.7068 58.375 66.2068C58 66.7068 58.75 68.5818 58.625 69.2068C58.5313 69.6756 57.9453 70.285 57.6582 71.4568M57.5 72.8318C57.5 72.3006 57.5625 71.8475 57.6582 71.4568M57.6582 71.4568C58.125 69.3318 57.625 67.8318 57.5 67.5818C57.4234 67.4285 57.5018 67.0204 57.5851 66.7068M57.6582 66.4568C57.6362 66.5249 57.6104 66.6115 57.5851 66.7068M57.5851 66.7068C56.875 67.3318 55.625 68.3318 55.5 68.8318C55.4796 68.9136 55.4357 69.0054 55.375 69.104M53.75 72.0818C53.7084 71.7902 53.7 71.1068 54 70.7068C54.3137 70.2886 55.0646 69.6081 55.375 69.104M55.375 69.104C53.4393 70.0029 52.0849 70.9995 51.8531 72.0818M51.875 72.8318C51.8057 72.5775 51.8005 72.3275 51.8531 72.0818M51.8531 72.0818C52.875 69.7068 54.375 69.2068 54.875 68.5818C55.375 67.9568 56.8418 66.3318 57.25 66.0818C57.6582 65.8318 58.875 62.8318 58.625 62.5818C58.375 62.3318 57.25 62.5818 56.75 62.8318C56.25 63.0818 55.875 64.5818 55.375 65.0818C54.9586 65.4983 54.3688 65.3078 53.75 66.3877M53.375 67.2068C53.5004 66.8725 53.6258 66.6045 53.75 66.3877M53.75 66.3877C54.375 64.8318 55 64.8318 55.125 64.3318C55.225 63.9318 55.8334 62.9985 56.125 62.5818C56.0384 62.4519 55.8324 62.2611 55.5 62.1219M54.25 61.9568C54.7782 61.9088 55.193 61.9934 55.5 62.1219M55.5 62.1219C55.1206 61.8062 54.6812 61.6403 54.25 61.5674M52.5 61.7068C52.862 61.5776 53.5449 61.4482 54.25 61.5674M54.25 61.5674C56.125 62.1219 56.5451 62.2068 57.5851 61.8318C58.625 61.4568 58.875 61.2068 59.25 60.3318C59.625 59.4568 61.25 58.3318 61.375 57.8318C61.5 57.3318 61.625 54.0818 60.75 52.5818C59.875 51.0818 58.125 47.285 56 45.9568C54.6327 45.1022 53.9382 43.8983 53.5501 43.0818M50.75 41.5818C51.4584 41.7068 52.925 42.0068 53.125 42.2068C53.1865 42.2683 53.263 42.4458 53.375 42.6983M53.5501 43.0818C56 43.0818 56.9398 43.2068 58.0324 43.8318M53.5501 43.0818C53.4833 42.9412 53.4256 42.8121 53.375 42.6983M33.125 73.082C31.75 71.0818 32 69.8318 31.75 69.2068C31.5 68.5818 30.625 65.9567 31.75 64.7068C32.65 63.707 33.0417 60.6236 33.125 59.2068C33.75 59.582 35.1 60.4322 35.5 60.832C36 61.3318 34.75 62.957 34.75 63.707C34.75 64.3516 34.8424 65.6425 35.662 66.7068M37.25 70.0818C36.375 69.0818 37.375 68.3318 36.125 67.2068C35.9494 67.0488 35.796 66.8808 35.662 66.7068M35.662 66.7068C35.125 64.7068 34.875 62.7068 36.375 62.7068C36.4648 62.7068 36.5479 62.7171 36.625 62.7366M40.75 68.3318C40.5965 67.6407 40.0678 66.2703 39.125 65.9029M39.125 65.9029C39.0447 65.8716 38.9614 65.8475 38.875 65.8318C37.5823 65.5968 37.8364 63.0416 36.625 62.7366M39.125 65.9029C39.825 65.9461 40.3334 66.1235 40.5 66.2068M36.625 62.7366C36.1841 62.1592 35.9376 60.633 37 60.7091M40.25 62.2068C40.1667 62.2485 39.875 62.2068 39.375 61.7068C38.75 61.0818 39.125 61.4568 37.5 60.832C37.3081 60.7582 37.1423 60.7193 37 60.7091M37 60.7091C36.25 60.2068 35.75 59.5818 34.75 59.2068C33.95 58.9068 34.0834 56.9985 34.25 56.0818C34.4167 55.1652 35.075 53.1568 36.375 52.4568C37.675 51.7568 38.3334 50.8318 38.5 50.4568C38.8334 50.9569 39.9 51.957 41.5 51.957C43.1 51.957 44.1667 51.1236 44.5 50.7068C45.2917 51.0402 46.9 51.9568 47 52.9568C47.0518 53.475 47.0822 53.8857 47.0643 54.2068M45.625 56.9568C46.5 56.2068 46.125 55.3318 46.625 55.0818C46.9178 54.9355 47.0391 54.6605 47.0643 54.2068M47.0643 54.2068C47.625 55.3318 49.25 56.3318 49.5 56.4568M49.5 56.4568C49.75 56.5818 50.375 57.4568 50.5 57.9568M49.5 56.4568C49.6456 56.384 49.8155 56.3322 50 56.2972M52.5 56.4568C51.9547 56.3205 50.8294 56.1396 50 56.2972M50 56.2972C49 55.9568 47.875 54.7068 47.875 54.3318C47.875 53.9568 48.125 52.2068 46.875 51.4568C48.75 51.8318 49.875 50.9567 50.625 51.4568C51.2748 51.8901 53.3316 52.7922 54.8452 52.4568M55.5 52.2068C55.2995 52.3238 55.0788 52.4051 54.8452 52.4568M54.8452 52.4568C52.25 51.957 51.5 51.3318 51 50.9568C53.125 50.0818 55.125 49.4568 56 49.5818C56.2167 49.6128 56.4256 49.6591 56.625 49.7074M58.125 49.8318C57.7488 50.02 57.2311 49.8542 56.625 49.7074M56.625 49.7074C55.25 49.3318 54.1002 49.3318 53.5501 49.5818M53.5501 49.5818C54.375 48.4568 55 46.8318 57.375 48.0818M53.5501 49.5818C52.25 50.0818 51.5 50.0818 51.25 49.8318C51 49.5818 50.5 48.9568 50 48.9568C49.6294 48.9568 50.2203 47.7723 50.5 47.0638M49.5 45.7068C50.25 45.5818 50.5 46.3318 50.625 46.5664C50.6574 46.6271 50.5977 46.8165 50.5 47.0638M50.5 47.0638C49.8284 48.1331 50.0406 48.9709 48.875 48.9067M47.375 48.5818C48.0431 48.7852 48.5222 48.8873 48.875 48.9067M48.875 48.9067C50.5 49.5818 51 49.9568 50.5 50.4568C50 50.9568 48.875 50.7068 48.125 50.7068C47.375 50.7068 46 51.0818 44.875 50.2068C44.375 48.0818 44.5 46.7068 44.875 45.9568C45.25 45.2068 46.625 42.314 47.375 42.5818C47.7034 42.6991 47.9359 42.7377 48.125 42.7754M49.75 43.4568C49.5417 43.4568 49.05 43.3818 48.75 43.0818C48.5392 42.871 48.3679 42.8239 48.125 42.7754M48.125 42.7754C47.7975 42.4972 47.8514 41.7944 48.6199 41.621M49.5 41.621C49.4584 41.6079 49.3 41.5818 49 41.5818C48.8576 41.5818 48.7313 41.5959 48.6199 41.621M48.6199 41.621C49.0172 41.2058 49.0671 40.8014 49.0251 40.4568M49.375 37.8318C49.2084 38.3318 48.875 39.4068 48.875 39.7068C48.875 39.8845 48.9873 40.1465 49.0251 40.4568M49.0251 40.4568C48.6199 41.2068 47.625 41.8318 47 42.0818C46.5 42.2818 46.375 42.4985 46.375 42.5818M46.375 42.5818C46.5 42.1652 46.65 41.2818 46.25 41.0818C45.85 40.8818 45.6667 40.2485 45.625 39.9568M46.375 42.5818C45.575 43.5818 44.9584 44.5818 44.75 44.9568C44.7818 44.6077 44.8087 43.9346 44.7313 43.4568M43.75 42.2068C43.75 42.5818 44.375 42.5818 44.625 43.0818C44.6727 43.1771 44.7071 43.3074 44.7313 43.4568M43.125 43.0818C43.3467 43.3035 43.5579 43.493 43.75 43.6383M44.7313 43.4568C44.7173 44.1102 44.3165 44.0666 43.75 43.6383M43.75 43.6383C44.25 44.4568 44.625 45.301 44.125 46.5664C43.9717 46.2692 43.5636 46.0449 43.25 45.9189M43 45.8318C43.0681 45.8513 43.1547 45.8805 43.25 45.9189M43.25 45.9189C44 46.4568 44.125 46.8318 44.125 48.2068C44.125 49.5818 44.375 49.9568 43.625 50.4568C42.875 50.9568 41 51.8318 38.875 50.2068C38.625 49.2068 38.25 48.3318 39.25 46.3318C40.25 44.3318 41.25 42.7068 41.375 41.7068C41.5 40.7068 41.625 37.2068 39.25 36.2068C38.25 35.8318 37.619 36.8322 36.494 36.3322M41.3949 41.5241C37.2699 39.3991 36 35.9568 35.75 33.2068C35.6447 32.0479 35.8621 30.4673 36.5 29.0823M42.125 26.2073C39.3046 25.7733 37.3758 27.1808 36.5 29.0823M36.5 29.0823C40.887 28.9573 44.625 23.582 45.875 21.082C46.3662 20.0997 46.8573 19.1946 47.5 18.253M52.125 13.207C52.125 13.582 52 13.957 51.875 14.207M52.125 13.207C52.225 12.207 53 9.54029 53.375 8.33196M52.125 13.207C49.8484 15.2559 48.4932 16.7981 47.5 18.253M53.375 8.33196C53.5 7.95696 54.75 7.83196 55.375 8.33196M53.375 8.33196C53.375 8.70725 55.625 8.70666 55.375 8.33196M55.375 8.33196C55.4715 8.42861 54.9728 10.4591 54.625 11.5545M54.375 12.2073C54.4322 12.1215 54.522 11.8791 54.625 11.5545M54.625 11.5545C55.75 10.0823 56.875 8.70725 57.75 9.08225C58.625 9.45725 58.5 11.0823 59.125 11.9573C59.6756 12.7281 60.8083 14.081 60.8138 15.3323M53.375 42.6983C53.3334 40.9929 53.1 37.2073 52.5 35.7073C51.75 33.8323 50.875 30.3323 51 28.9573C51.125 27.5823 52.75 25.9573 53.125 25.4573C53.5 24.9573 56.5 20.9573 57.875 19.8323C59.25 18.7073 60.375 17.2073 60.75 15.8323C60.7947 15.6686 60.8145 15.5013 60.8138 15.3323M17.8581 46.7072C18.2321 45.7486 18.6029 44.8873 18.875 44.207C19.625 42.332 19.125 39.457 20.875 39.457C22.625 39.457 24.25 42.332 24.125 42.957C24.525 43.157 24.7084 43.457 24.75 43.582C25.65 43.482 26.4584 44.0403 26.75 44.332C27.3879 44.332 28.0065 44.5439 28.5 44.8467M17.8581 46.7072C16.375 42.2072 15.25 40.9577 15.25 37.0822C15.25 34.6257 16.355 30.6626 17.769 27.708M28.5 44.8467C25.625 42.7361 24.75 36.3323 25.25 35.2073C25.5108 34.6205 25.122 33.6543 24.5856 32.7073M24.5856 32.7073C24.0937 31.8387 23.4776 30.9862 23.125 30.4573C22.375 29.3323 22.75 22.5823 20.375 24.0823C19.5055 24.6314 18.5857 26.0015 17.769 27.708M24.5856 32.7073C25.3754 30.764 26.8816 27.7951 26.9556 26.458M33.75 3.70801C33.7929 3.63661 33.8178 3.55216 33.8277 3.45801M33.8277 3.45801C33.9047 2.72799 33.0822 1.41489 32.75 1.08273C32.375 0.707727 31 1.70773 31 2.08273C31 2.20773 31.15 2.63273 31.75 3.33273C32.5 4.20773 31 5.45773 31 5.20773C31 4.95773 30.5 4.08225 30.25 3.83225C30 3.58225 28.75 4.45725 29 4.70725C30.25 6.58225 29.125 8.20725 28.125 12.4573C27.125 16.7073 29.125 20.2073 29.75 21.7073C29.125 21.5823 26.875 16.9573 24.5 11.2073C23.5 10.7073 20.125 12.9573 20.375 13.7073C22.5 19.4573 26.375 25.0823 26.875 25.9573C26.9432 26.0765 26.9672 26.2469 26.9556 26.458M33.8277 3.45801C36.25 2.33301 38.875 1.95801 39.5 2.20801C40.125 2.45801 40.5 5.33301 40 5.70801C39 5.80801 38.3334 5.74967 38.125 5.70801C38.5 5.87467 39.275 6.30801 39.375 6.70801C39.5 7.20801 39 7.45801 38.75 7.45801C38.5 7.45801 37.5 6.45801 36.75 6.70801C36 6.95801 33.875 8.08301 33.25 9.45801C32.625 10.833 31.1554 15.708 33.8277 18.333C39.125 15.833 43.75 16.6731 47.5 18.253M26.9556 26.458C20 21.208 14.875 19.083 13.75 18.208C12.625 17.333 10.875 15.458 9.87503 15.458C8.87503 15.458 6.87503 17.708 6.87503 18.208C6.87503 18.608 10.5417 20.958 12.375 22.083C11.0417 21.8747 7.82503 21.833 5.62503 23.333C4.75003 22.583 4.37503 22.458 3.75003 23.208C3.37503 23.583 4.25003 24.458 3.87503 24.708C3.50003 24.958 3.125 23.833 2.625 23.583C2.125 23.333 1.25 23.958 1.25 24.458C1.25 24.958 2 25.083 1.625 26.083C1.25 27.083 1 27.208 1 27.708C1 28.208 3.125 30.458 4.5 29.958C4.875 29.833 4.375 28.708 6.125 27.458C7.875 26.208 12.5327 25.208 17.769 27.708M67.9598 34.4568C69.25 34.4568 66.75 30.708 66.125 29.583C65.5 28.458 62.375 25.208 62.5 24.458C62.625 23.708 63 22.833 64.25 23.333C65.5 23.833 66 23.708 66.375 23.208C66.5658 22.9536 66.7566 22.6345 66.7992 22.333M66.375 21.583C66.7434 21.7672 66.8404 22.0419 66.7992 22.333M66.7992 22.333C68.125 22.958 68.375 22.583 68.875 22.333C69.375 22.083 69.75 20.708 69.375 20.083C69.1069 19.6361 67.6885 19.0614 66.125 18.6788M64.25 18.333C64.8556 18.4043 65.5018 18.5263 66.125 18.6788M66.125 18.6788C68.5 17.458 68.25 17.208 68.375 16.833C68.5 16.458 66.875 14.458 66.25 14.083C65.75 13.783 64.1031 14.7908 63.3115 15.3323M62 18.083C63.125 16.333 64 13.458 63.875 13.083C63.75 12.708 62.25 12.208 61.75 12.458C61.35 12.658 60.9592 14.4575 60.8138 15.3323M58 10.4573C58.375 12.0823 58.75 12.3323 59.125 12.8323C59.5 13.3323 60.5 14.7073 60.375 15.3323C60.25 15.9573 58.75 14.5823 58 13.4573C57.25 12.3323 56.8224 10.2599 57.375 9.70725C57.625 9.45725 57.9584 10.0823 58 10.4573ZM20.75 30.8323C19.5 28.3323 20 25.3323 20.625 24.8323C21.25 24.3323 21.5 24.9573 21.75 25.8323C22 26.7073 22.0947 29.6466 22.625 30.7073C23.25 31.9573 24.75 33.4573 24.75 34.5823C24.75 35.7073 23.4871 36.3129 22.75 35.2073C22 34.0823 22.125 33.4573 20.75 30.8323Z" stroke="black" stroke-linecap="round" stroke-linejoin="round"/>
</svg>
