<svg width="123" height="235" viewBox="0 0 123 235" fill="none" xmlns="http://www.w3.org/2000/svg">
<path d="M38.4462 27.2315C38.4462 29.1065 35.8212 30.7315 34.5712 31.8565C34.0099 32.3616 33.1462 33.1188 31.9462 33.7658C30.4736 34.5598 28.4945 35.1881 25.9462 34.9815C25.9462 35.4814 25.7724 36.6811 25.077 37.4811C25.4068 38.3241 25.7253 39.2487 25.9462 39.8561C26.4462 41.2311 25.3212 44.2311 26.6962 46.1146C28.1958 45.0535 30.1891 44.5204 32.6962 45.3561C36.8791 46.7504 38.3259 49.6808 38.3751 53.1061C38.3859 53.8525 38.3302 54.6224 38.2221 55.4049C38.0257 56.8265 37.6561 58.2901 37.1962 59.7311C35.3212 65.6061 29.5712 70.2311 21.0712 70.9811C12.5712 71.7311 6.07117 62.4811 4.94617 61.1061C3.82117 59.7311 2.5712 49.3561 1.3212 45.8561C0.071197 42.3561 2.8212 31.8565 3.5712 29.1061C4.3212 26.3558 5.5712 20.3565 9.9462 16.1065C14.3212 11.8565 24.5712 7.98147 31.9462 12.6065C39.3212 17.2315 38.4462 25.3565 38.4462 27.2315Z" fill="#934836"/>
<path d="M88.1258 22.6897C86.8388 21.6072 84.1608 20.0711 84.0979 18.1972C84.0351 16.3232 82.8882 8.23213 90.104 3.36248C97.3198 -1.50716 107.694 2.02203 112.209 6.12297C116.724 10.2239 118.174 16.1779 119.016 18.9016C119.858 21.6253 122.958 32.0268 121.826 35.5667C120.694 39.1067 119.793 49.5178 118.715 50.9297C117.636 52.3416 111.45 61.8044 102.93 61.3397C94.4095 60.8751 88.5077 56.4455 86.4368 50.6366C85.9086 49.1552 85.4772 47.6461 85.2381 46.1787C85.1207 45.458 85.0496 44.7473 85.0364 44.0549C84.9708 40.6299 86.3185 37.6526 90.4523 36.1189C92.93 35.1996 94.94 35.6655 96.4744 36.6758C97.7855 34.7473 96.5605 31.7867 97.0141 30.3957C97.2145 29.7812 97.5018 28.8464 97.8032 27.9929C97.0814 27.2166 96.8675 26.0234 96.8507 25.5238C94.3108 25.8157 92.3117 25.2541 90.8133 24.5099C89.5923 23.9035 88.7037 23.1757 88.1258 22.6897Z" fill="#934836"/>
<path d="M32.7936 45.3462C30.2866 44.5105 28.2933 45.0435 26.7936 46.1047C25.4186 44.2212 26.5437 41.2212 26.0437 39.8462C25.8228 39.2387 25.5043 38.3141 25.1744 37.4712C25.8698 36.6712 26.0437 35.4714 26.0437 34.9715C28.592 35.1781 30.5711 34.5499 32.0437 33.7559C44.4186 42.2212 43.2936 55.9712 42.6686 59.7212C42.0436 63.4712 30.5436 93.9712 28.6686 105.596C26.7936 117.221 20.5436 141.221 37.0436 158.096C36.377 158.721 34.8686 160.346 34.1686 161.846C20.2936 145.346 22.2936 131.221 22.4186 118.721C22.5382 106.763 36.6151 73.0675 38.3196 55.395C38.3968 54.5947 38.4486 53.8273 38.4726 53.0962C38.4233 49.6709 36.9765 46.7405 32.7936 45.3462Z" fill="#E0CAC3"/>
<path d="M96.5719 36.6658C95.0375 35.6556 93.0274 35.1897 90.5498 36.1089C86.416 37.6427 85.0682 40.6199 85.1338 44.045C85.1804 44.7455 85.2482 45.4536 85.3356 46.1688C87.3491 62.6535 99.748 82.9132 101.544 101.221C103.652 122.721 99.7327 144.64 86.4186 161.596C85.4186 159.796 84.4186 158.763 84.0436 158.471C99.9686 141.052 98.956 107.742 96.6923 96.1868C94.4287 84.6312 81.9126 54.5338 81.1623 50.8069C80.4119 47.08 78.8266 33.3754 90.9108 24.5C92.4092 25.2442 94.4082 25.8057 96.9482 25.5138C96.9649 26.0134 97.1789 27.2067 97.9007 27.9829C97.5993 28.8365 97.312 29.7712 97.1116 30.3857C96.6579 31.7767 97.8829 34.7373 96.5719 36.6658Z" fill="#E0CAC3"/>
<path d="M26.6962 46.1146C28.1958 45.0535 30.1891 44.5204 32.6962 45.3561C36.8791 46.7504 38.3259 49.6808 38.3751 53.1061M26.6962 46.1146C24.9657 47.3391 23.8926 49.2668 23.4462 50.6061M26.6962 46.1146C25.3212 44.2311 26.4462 41.2311 25.9462 39.8561C25.7253 39.2487 25.4068 38.3241 25.077 37.4811M25.077 37.4811C24.6602 36.416 24.2253 35.4811 23.9462 35.4811M25.077 37.4811C25.7724 36.6811 25.9462 35.4814 25.9462 34.9815M25.9462 34.9815C25.9462 33.1812 23.9462 29.6478 22.9462 28.1061M25.9462 34.9815C28.4945 35.1881 30.4736 34.5598 31.9462 33.7658M31.9462 33.7658C33.1462 33.1188 34.0099 32.3616 34.5712 31.8565C35.8212 30.7315 38.4462 29.1065 38.4462 27.2315C38.4462 25.3565 39.3212 17.2315 31.9462 12.6065C24.5712 7.98147 14.3212 11.8565 9.9462 16.1065C5.5712 20.3565 4.3212 26.3558 3.5712 29.1061C2.8212 31.8565 0.071197 42.3561 1.3212 45.8561C2.5712 49.3561 3.82117 59.7311 4.94617 61.1061C6.07117 62.4811 12.5712 71.7311 21.0712 70.9811C29.5712 70.2311 35.3212 65.6061 37.1962 59.7311C37.6561 58.2901 38.0257 56.8265 38.2221 55.4049M31.9462 33.7658C44.3212 42.2311 43.1962 55.9811 42.5712 59.7311C41.9462 63.4811 30.4462 93.9811 28.5712 105.606C26.6962 117.231 20.4462 141.231 36.9462 158.106C36.2795 158.731 34.7712 160.356 34.0712 161.856C20.1962 145.356 22.1962 131.231 22.3212 118.731C22.4408 106.773 36.5176 73.0775 38.2221 55.4049M38.2221 55.4049C38.3302 54.6224 38.3859 53.8525 38.3751 53.1061M38.2221 55.4049C38.2993 54.6046 38.3511 53.8372 38.3751 53.1061M96.4744 36.6758C94.94 35.6655 92.93 35.1996 90.4523 36.1189C86.3185 37.6526 84.9708 40.6299 85.0364 44.0549M96.4744 36.6758C98.2449 37.8416 99.382 39.7322 99.8731 41.0558M96.4744 36.6758C97.7855 34.7473 96.5605 31.7867 97.0141 30.3957C97.2145 29.7812 97.5018 28.8464 97.8032 27.9929M97.8032 27.9929C98.1841 26.9143 98.5874 25.9654 98.8664 25.9561M97.8032 27.9929C97.0814 27.2166 96.8675 26.0234 96.8507 25.5238M96.8507 25.5238C96.7904 23.7245 98.6708 20.126 99.6186 18.5517M96.8507 25.5238C94.3108 25.8157 92.3117 25.2541 90.8133 24.5099M90.8133 24.5099C89.5923 23.9035 88.7037 23.1757 88.1258 22.6897C86.8388 21.6072 84.1608 20.0711 84.0979 18.1972C84.0351 16.3232 82.8882 8.23213 90.104 3.36248C97.3198 -1.50716 107.694 2.02203 112.209 6.12297C116.724 10.2239 118.174 16.1779 119.016 18.9016C119.858 21.6253 122.958 32.0268 121.826 35.5667C120.694 39.1067 119.793 49.5178 118.715 50.9297C117.636 52.3416 111.45 61.8044 102.93 61.3397C94.4095 60.8751 88.5077 56.4455 86.4368 50.6366C85.9086 49.1552 85.4772 47.6461 85.2381 46.1787M90.8133 24.5099C78.7291 33.3853 80.3144 47.0899 81.0648 50.8168C81.8152 54.5438 94.3312 84.6411 96.5949 96.1967C98.8586 107.752 99.8712 141.062 83.9462 158.481C84.3212 158.773 85.3212 159.806 86.3212 161.606C99.6352 144.65 103.555 122.731 101.446 101.231C99.6505 82.9232 87.2516 62.6635 85.2381 46.1787M85.2381 46.1787C85.1207 45.458 85.0496 44.7473 85.0364 44.0549M85.2381 46.1787C85.1507 45.4635 85.0829 44.7554 85.0364 44.0549" stroke="black" stroke-linecap="round" stroke-linejoin="round"/>
<path d="M32.8967 163.75C30.8967 169.25 30.7717 176 41.8967 182.375C49.0217 186.25 56.2717 186.625 56.5217 194.25L58.231 233.25C58.231 233.625 59.606 233.75 60.231 233.75C60.856 233.75 62.106 233.625 62.106 233.25L64.5217 194.25C65.0217 186.375 68.1467 188 79.2717 182.375C90.3967 176.75 89.8967 168.25 87.3967 163.75C84.8967 159.25 80.0217 150 61.0217 150C42.0217 150 34.8967 158.25 32.8967 163.75Z" fill="#D66568"/>
<path d="M32.8967 163.75C30.8967 169.25 30.7717 176 41.8967 182.375C49.0217 186.25 56.2717 186.625 56.5217 194.25L58.231 233.25C58.231 233.625 59.606 233.75 60.231 233.75C60.856 233.75 62.106 233.625 62.106 233.25L64.5217 194.25C65.0217 186.375 68.1467 188 79.2717 182.375C90.3967 176.75 89.8967 168.25 87.3967 163.75C84.8967 159.25 80.0217 150 61.0217 150C42.0217 150 34.8967 158.25 32.8967 163.75Z" stroke="black" stroke-linecap="round" stroke-linejoin="round"/>
</svg>
