<svg width="132" height="103" viewBox="0 0 132 103" fill="none" xmlns="http://www.w3.org/2000/svg">
<path d="M33.7655 83.9793C32.9237 84.6382 31.9343 85.4541 30.8403 86.3729C32.921 91.0178 38.4105 89.6103 39.6773 88.625C40.9441 87.6397 43.6184 86.2235 41.7886 80.668C38.9248 81.2398 36.2053 82.0699 33.7655 83.9793Z" fill="#3E8B4E"/>
<path d="M72.7856 16.8465C75.3192 21.2099 75.46 53.443 74.897 61.6069C74.7677 63.4806 74.2974 65.2061 73.5541 66.8156C74.1932 69.9122 74.897 73.7126 74.897 75.4017C74.897 75.7298 75.0882 76.0155 75.4015 76.2462C76.1638 79.4836 77.2816 79.0614 78.2751 79.2021C79.2686 79.3429 80.8696 77.9353 80.0691 76.2462C80.3489 76.027 80.5599 75.7476 80.668 75.4017C81.3717 73.1496 82.6385 71.4605 82.357 70.8975C82.0755 70.3345 80.0916 67.8009 79.2686 65.6895C76.6531 61.7194 77.1491 41.573 77.1491 36.553C77.1491 31.2043 77.5713 19.0993 80.9495 15.0173C83.9761 11.3602 91.9742 11.3186 98.2625 11.552C97.6056 11.0649 96.3763 9.89381 96.7142 9.10557C93.899 8.12028 77.1491 10.7946 72.7856 9.10557C68.4222 7.4165 55.3319 1.50443 50.6869 1.08217C46.042 0.659897 40.4117 1.9267 40.4117 3.47463C40.4117 5.02255 39.7079 4.74182 39.0042 5.93134C42.3664 4.58738 45.9372 3.62772 49.4201 3.47463C62.2289 2.9116 70.252 12.483 72.7856 16.8465Z" fill="#E0CAC3"/>
<path d="M1 64.8455C1 59.6375 2.40696 35.9898 24.0834 15.0171C26.8708 12.6013 32.6144 8.54186 39.1443 5.9318C42.5065 4.58785 46.0773 3.62819 49.5602 3.47509C62.369 2.91207 70.3921 12.4835 72.9257 16.8469C75.4593 21.2104 75.6001 53.4435 75.0371 61.6074C74.9079 63.4811 74.4375 65.2066 73.6942 66.816C71.199 72.219 63.918 74.6984 57.584 77.232C52.1175 79.4186 46.5556 79.7312 41.8192 80.6769C38.9554 81.2487 36.2359 82.0789 33.7961 83.9883C32.9543 84.6471 31.9649 85.463 30.8709 86.3818C23.5515 92.5296 11.5523 103.285 7.75625 102.427C3.39281 101.442 3.81508 89.4778 3.67432 85.9589C3.53357 82.44 1 70.0534 1 64.8455Z" fill="#602732"/>
<path d="M123.457 32.0493C121.346 34.7236 114.308 40.9169 108.537 48.6585C101.218 58.6522 83.2009 68.0828 79.9635 66.253C79.7646 66.1406 79.58 65.95 79.4087 65.69C76.7932 61.7199 77.2892 41.5735 77.2892 36.5535C77.2892 31.2047 77.7114 19.0997 81.0896 15.0178C84.1162 11.3606 92.1143 11.319 98.4026 11.5524C99.1228 11.5792 99.8205 11.6095 100.486 11.6384L100.514 11.6396C106.989 11.9212 119.234 15.8623 122.894 17.5514C126.554 19.2405 130.213 16.8469 130.636 20.5073C131.058 24.1676 125.569 29.3749 123.457 32.0493Z" fill="#602732"/>
<path d="M39.1443 5.93134C42.5066 4.58738 46.0773 3.62772 49.5602 3.47463C62.369 2.9116 70.3921 12.483 72.9257 16.8465C75.4593 21.2099 75.6001 53.443 75.0371 61.6069C74.9078 63.4806 74.4375 65.2061 73.6942 66.8156M39.1443 5.93134C32.6144 8.5414 26.8708 12.6009 24.0834 15.0166C2.40696 35.9893 1 59.637 1 64.845C1 70.053 3.53357 82.4395 3.67432 85.9584C3.81508 89.4773 3.39281 101.442 7.75625 102.427C11.5523 103.284 23.5515 92.5292 30.8709 86.3814M39.1443 5.93134C39.848 4.74182 40.5518 5.02255 40.5518 3.47463C40.5518 1.9267 46.1821 0.659897 50.827 1.08217C55.472 1.50443 68.5623 7.4165 72.9257 9.10557C77.2892 10.7946 94.0391 8.12028 96.8543 9.10557C96.5165 9.89381 97.7457 11.0649 98.4026 11.552M98.4026 11.552C99.1329 11.5791 99.8402 11.6099 100.514 11.6392C106.989 11.9207 119.234 15.8619 122.894 17.5509C126.554 19.24 130.213 16.8465 130.636 20.5068C131.058 24.1672 125.569 29.3745 123.457 32.0488C121.346 34.7232 114.308 40.9165 108.537 48.658C101.218 58.6517 83.2009 68.0824 79.9635 66.2526C79.7646 66.1401 79.58 65.9495 79.4087 65.6895M98.4026 11.552C92.1143 11.3186 84.1162 11.3602 81.0896 15.0173C77.7114 19.0993 77.2892 31.2043 77.2892 36.553C77.2892 41.573 76.7932 61.7195 79.4087 65.6895M73.6942 66.8156C71.199 72.2186 63.918 74.6979 57.584 77.2315C52.1175 79.4181 46.5556 79.7308 41.8192 80.6765M73.6942 66.8156C74.3333 69.9122 75.0371 73.7126 75.0371 75.4017C75.0371 75.7298 75.2283 76.0155 75.5417 76.2462M79.4087 65.6895C80.2318 67.8009 82.2156 70.3345 82.4971 70.8975C82.7787 71.4605 81.5119 73.1496 80.8081 75.4017C80.7 75.7476 80.489 76.027 80.2092 76.2462M75.5417 76.2462C76.3039 79.4836 77.4217 79.0614 78.4152 79.2021C79.4087 79.3429 81.0098 77.9353 80.2092 76.2462M75.5417 76.2462C76.5935 77.0209 79.0213 77.177 80.2092 76.2462M30.8709 86.3814C31.9649 85.4626 32.9543 84.6467 33.7961 83.9878C36.2359 82.0785 38.9554 81.2483 41.8192 80.6765M30.8709 86.3814C32.9516 91.0263 38.4411 89.6188 39.7079 88.6335C40.9747 87.6482 43.6491 86.2321 41.8192 80.6765" stroke="black" stroke-linecap="round" stroke-linejoin="round"/>
</svg>
