<svg width="167" height="213" viewBox="0 0 167 213" fill="none" xmlns="http://www.w3.org/2000/svg">
<path d="M72.125 73.6413C79.375 71.6413 80.125 64.3912 80.125 59.6412V2.00006C80.125 0.875061 87 0.750061 87 2.00006V59.6412C87 65.9412 87.75 70.5162 91.625 71.5162C92.125 75.4329 90.425 83.1663 88.625 82.2663C86.375 81.1413 85 78.0163 82.875 78.0163C80.125 78.0163 78.625 82.0163 71 82.2663L69.25 81.3913L72.125 73.6413Z" fill="#CCA79C"/>
<path d="M106.472 164.905C98.7434 176.756 103.509 193.244 123.733 193.244C131.655 197.771 145.444 202.397 154.267 205.551C155.486 205.986 156.61 206.394 157.611 206.769C159.948 207.646 161.612 207.974 162.798 207.553C162.92 207.502 163.038 207.45 163.15 207.398C163.038 207.458 162.92 207.509 162.798 207.553C151.81 212.12 99.9462 211.858 92.3028 203.936C86.2486 197.108 96.4248 153.078 93.5908 114.43C95.2442 116.234 96.8093 117.565 97.9705 118.404C102.608 121.753 112.14 125.359 114.072 135.536C116.004 145.712 114.201 153.054 106.472 164.905Z" fill="#CB7072"/>
<path d="M16.0453 203.936C11.2792 206.125 8.05891 210.505 6.12671 210.634C15.0148 214.732 77.1028 208.726 79.8751 203.936C82.6474 199.145 73.2384 185.411 78.624 152.692C75.8889 164.507 70.0333 173.159 62.2893 180.363C51.2113 190.668 34.0792 196.98 29.3131 195.82C26.9945 198.654 20.8114 201.746 16.0453 203.936Z" fill="#CB7072"/>
<path d="M6 210.779C14.8881 214.877 76.9761 208.871 79.7484 204.081C82.5207 199.29 73.1117 185.556 78.4973 152.837M93.4641 114.575C96.2981 153.224 86.1219 197.254 92.1761 204.081C99.9049 212.091 152.847 212.27 163.023 207.543M72.25 73.625C79.5 71.625 80.0898 64.3912 80.0898 59.6412C80.0898 55.8412 80.0898 14 80.0898 1.99997C80.0898 0.874969 86.9648 0.749969 86.9648 1.99997C86.9648 12.9583 86.9648 53.3412 86.9648 59.6412C86.9648 64.914 87.4902 68.9785 89.9334 70.75M70.9648 82.2663C78.5898 82.0163 80.0898 78.0163 82.8398 78.0163C84.0088 78.0163 84.9508 78.9619 85.9363 80" stroke="black" stroke-linecap="round" stroke-linejoin="round"/>
<path d="M110.071 50.0064C102.858 47.5589 95.3866 49.1047 93.8408 59.925C93.3256 63.4287 94.5708 65.421 95.2578 65.9792C92.7245 66.6662 87.1425 71.5955 85.0815 85.8164C82.5053 103.593 93.5832 114.799 98.2205 118.149C102.858 121.498 112.39 125.104 114.322 135.281C116.254 145.457 114.451 152.799 106.722 164.65C98.9933 176.501 103.759 192.989 123.983 192.989C133 198.142 149.617 203.423 157.861 206.514C166.105 209.606 165.976 205.87 165.976 186.548C167.241 159.362 165.085 136.799 160.487 118.149C158.528 110.2 156.124 102.962 153.353 96.3791C144.078 74.3521 131.454 65.9792 128.492 64.3046C125.529 62.6301 117.285 52.4538 110.071 50.0064Z" fill="#DD9C9F"/>
<path d="M66.7901 50.0064C74.3901 48.4607 75.5494 67.1385 70.6545 80.7927C75.5428 88.2314 78.9407 106.015 80.1251 123.945C80.3764 127.75 80.528 131.56 80.5731 135.281C80.8307 156.535 73.6172 169.803 62.5393 180.108C51.4613 190.413 34.3292 196.725 29.5631 195.565C27.2444 198.399 21.0614 201.491 16.2953 203.681C11.5292 205.87 8.30889 210.25 6.37669 210.379C4.44449 210.508 0.32247 198.013 1.09535 165.809C1.38724 153.648 2.08331 143.047 3.23909 133.606C3.61634 130.525 4.04255 127.567 4.51968 124.718C6.45139 113.185 9.21752 103.447 12.9462 94.5757C20.4173 76.7995 32.5258 66.7521 42.058 59.2809C51.5901 51.8097 59.1901 51.5521 66.7901 50.0064Z" fill="#DD9C9F"/>
<path d="M123.983 192.989C133 198.142 149.617 203.423 157.861 206.514C166.105 209.606 165.976 205.87 165.976 186.548C167.241 159.362 165.085 136.799 160.487 118.149M123.983 192.989C103.759 192.989 98.9933 176.501 106.722 164.65C114.451 152.799 116.254 145.457 114.322 135.281C112.39 125.104 102.858 121.498 98.2205 118.149C93.5832 114.799 82.5053 103.593 85.0815 85.8164C87.1425 71.5955 92.7245 66.6662 95.2578 65.9792M123.983 192.989C127.032 190.842 136.195 182.607 148.458 166.84C163.786 147.132 162.37 141.464 160.487 118.149M95.2578 65.9792C94.5708 65.421 93.3256 63.4287 93.8408 59.925C95.3866 49.1047 102.858 47.5589 110.071 50.0064C117.285 52.4538 125.529 62.6301 128.492 64.3046C131.454 65.9792 144.078 74.3521 153.353 96.3791C156.124 102.962 158.528 110.2 160.487 118.149M95.2578 65.9792C96.3914 65.7731 99.8522 61.8572 101.441 59.925M70.6545 80.7927C75.5494 67.1385 74.3901 48.4607 66.7901 50.0064C59.1901 51.5521 51.5901 51.8097 42.058 59.2809C32.5258 66.7521 20.4173 76.7995 12.9462 94.5757C9.21752 103.447 6.45139 113.185 4.51968 124.718M70.6545 80.7927C67.563 75.3826 64.9867 74.8673 62.7969 68.169M70.6545 80.7927C75.5428 88.2314 78.9407 106.015 80.1251 123.945M29.5631 195.565C27.2444 198.399 21.0614 201.491 16.2953 203.681C11.5292 205.87 8.30889 210.25 6.37669 210.379C4.44449 210.508 0.32247 198.013 1.09535 165.809C1.38724 153.648 2.08331 143.047 3.23909 133.606M29.5631 195.565C34.3292 196.725 51.4613 190.413 62.5393 180.108C73.6172 169.803 80.8307 156.535 80.5731 135.281C80.528 131.56 80.3764 127.75 80.1251 123.945M29.5631 195.565C23.6377 191.314 7.31504 154.345 3.23909 133.606M3.23909 133.606C3.61634 130.525 4.04255 127.567 4.51968 124.718M4.51968 124.718C15.7801 138.759 42.9597 132.189 51.8478 129.613C60.7359 127.037 73.8804 124.46 80.1251 123.945" stroke="black" stroke-linecap="round" stroke-linejoin="round"/>
</svg>
