<svg width="128" height="137" viewBox="0 0 128 137" fill="none" xmlns="http://www.w3.org/2000/svg">
<path d="M71.6566 81.9979C74.9066 67.7479 73.0316 65.8729 61.5316 48.8729C51.7815 34.6227 45.9066 5.49812 45.6566 3.37312C45.4066 1.24812 58.2816 -0.126884 58.5316 2.24812C59.2399 8.78978 62.0316 24.6981 67.5316 35.9981C74.4066 50.1231 81.9066 53.8729 83.6566 52.8729C85.4066 51.8729 90.1566 40.1229 104.782 41.1229C119.407 42.1229 125.782 52.7479 126.657 66.4979C127.532 80.2479 124.157 100.373 107.282 116.748C90.4066 133.123 72.6566 133.498 69.9066 133.998C67.1566 134.498 66.0316 135.498 62.0316 135.498C51.2816 135.873 47.2816 127.748 46.1566 126.748C45.0316 125.748 40.7816 125.748 37.6566 122.373C34.5316 118.998 32.1566 113.498 31.6566 112.373C31.1566 111.248 29.7816 112.248 27.5316 112.373C25.2816 112.498 23.5316 108.373 22.0316 109.748C19.182 112.541 18.5671 116.581 18.9074 120.375C15.5738 121.458 7.34843 123.375 1.11592 122.373C0.45137 113.45 2.59126 103.603 8.90656 97.4979C20.1566 86.6229 34.0316 94.8729 35.7816 95.7479C37.5316 96.6229 40.5316 94.8729 49.2816 101.623C58.0316 108.373 68.4066 96.2479 71.6566 81.9979Z" fill="#B88375"/>
<path d="M31.6566 112.373C31.1566 111.248 29.7816 112.248 27.5316 112.373C25.2816 112.498 23.5316 108.373 22.0316 109.748C19.182 112.541 18.5671 116.581 18.9074 120.375C15.5738 121.458 7.34843 123.375 1.11592 122.373C0.45137 113.45 2.59126 103.603 8.90656 97.4979C20.1566 86.6229 34.0316 94.8729 35.7816 95.7479C37.5316 96.6229 40.5316 94.8729 49.2816 101.623C58.0316 108.373 68.4066 96.2479 71.6566 81.9979C74.9066 67.7479 73.0316 65.8729 61.5316 48.8729C51.7815 34.6227 45.9066 5.49812 45.6566 3.37312C45.4066 1.24812 58.2816 -0.126884 58.5316 2.24812C59.2399 8.78978 62.0316 24.6981 67.5316 35.9981C74.4066 50.1231 81.9066 53.8729 83.6566 52.8729C85.4066 51.8729 90.1566 40.1229 104.782 41.1229C119.407 42.1229 125.782 52.7479 126.657 66.4979C127.532 80.2479 124.157 100.373 107.282 116.748C90.4066 133.123 72.6566 133.498 69.9066 133.998C67.1566 134.498 66.0316 135.498 62.0316 135.498C51.2816 135.873 47.2816 127.748 46.1566 126.748M31.6566 112.373C32.1566 113.498 34.5316 118.998 37.6566 122.373C40.7816 125.748 45.0316 125.748 46.1566 126.748M31.6566 112.373C29.9566 108.173 31.4483 102.706 32.4066 100.498M46.1566 126.748C44.3566 123.248 44.1566 120.54 44.2816 119.623" stroke="black" stroke-linecap="round" stroke-linejoin="round"/>
</svg>
